<svg width="406" height="438" viewBox="0 0 406 438" fill="none" xmlns="http://www.w3.org/2000/svg">
<path d="M208.047 376.046C299.856 376.046 374.174 302.05 374.174 210.563C374.174 119.076 299.937 45 208.047 45C116.56 45 42 118.996 42 210.483C42 301.97 116.237 376.046 208.047 376.046Z" fill="#2C3039"/>
<path d="M388.921 400.358C423.018 365.052 398.272 305.163 348.538 305.163C325.888 305.163 306.462 318.543 297.515 337.808C289.616 338.292 282.281 340.79 266.401 351.269L263.822 294.523H244.316L242.703 329.828C236.336 324.911 230.21 325.475 225.938 325.798L226.985 325.636L225.293 290.734H192.809L190.794 332.246C185.312 328.055 183.62 330.07 181.927 330.07C178.622 330.07 175.479 330.956 172.819 332.407L171.045 294.442H151.539L150.169 324.508C141.302 319.269 130.904 316.206 119.861 316.206C106.48 316.206 94.1479 320.639 84.1528 328.055C40.7065 307.42 -7.01181 347.481 5.88504 393.909L37.0793 413.899C36.3538 414.383 35.6284 414.867 34.9029 415.35L37.0793 413.899C27.0036 423.33 56.9082 396.086 65.0493 399.793C65.6942 401.244 66.339 402.615 67.0645 403.985L65.6942 400.196C66.5808 400.922 67.0645 402.131 67.0645 403.985C67.0645 403.985 67.0645 404.065 67.1451 404.065C59.0845 404.468 51.5076 406.403 44.5756 409.708L70.5305 405.033C92.697 409.788 214.25 426.474 214.492 428.569L212.718 425.265C213.444 425.345 214.25 425.426 215.056 425.506C219.005 431.31 224.809 435.824 231.58 438C226.099 435.179 221.504 430.988 218.199 425.829C244.88 428.408 279.621 426.635 292.356 425.265C304.044 427.36 316.296 424.7 326.291 417.446C328.387 415.914 330.402 414.141 332.256 412.207C344.589 412.126 367.239 415.673 366.916 410.191L389.163 414.141C382.876 411.239 376.105 409.305 368.851 408.66L388.921 400.358ZM324.518 414.222C324.598 413.98 324.679 413.819 324.921 413.577L324.518 414.222Z" fill="#1E1F28"/>
<path d="M172.819 332.407L171.046 294.523H151.539L150.169 324.508" fill="#1E1F28"/>
<path d="M172.819 332.407L171.046 294.523H151.539L150.169 324.508" stroke="#353B4A" stroke-width="2" stroke-miterlimit="10" stroke-linecap="round" stroke-linejoin="round"/>
<path d="M266.482 352.72L263.822 294.523H244.316L242.704 329.909" fill="#1E1F28"/>
<path d="M266.482 352.72L263.822 294.523H244.316L242.704 329.909" stroke="#353B4A" stroke-width="2" stroke-miterlimit="10" stroke-linecap="round" stroke-linejoin="round"/>
<path d="M226.986 325.556L225.212 290.734H192.809L190.794 331.682L190.875 332.327" fill="#1E1F28"/>
<path d="M226.986 325.556L225.212 290.734H192.809L190.794 331.682L190.875 332.327" stroke="#353B4A" stroke-width="2" stroke-miterlimit="10" stroke-linecap="round" stroke-linejoin="round"/>
<path d="M51.5885 384.72C54.4097 383.753 57.3921 383.108 60.5357 382.786" stroke="#353B4A" stroke-width="2" stroke-miterlimit="10" stroke-linecap="round" stroke-linejoin="round"/>
<path d="M221.827 278.321H195.227L189.746 282.029C188.617 282.835 187.973 284.044 187.973 285.414V289.041H229.887V285.575C229.887 284.124 229.162 282.835 227.953 282.109L221.827 278.321Z" fill="#5C6479"/>
<path d="M231.661 290.734C231.661 291.621 230.935 292.346 230.049 292.346H187.489C186.602 292.346 185.877 291.621 185.877 290.734C185.877 289.848 186.602 289.122 187.489 289.122H230.049C230.935 289.122 231.661 289.848 231.661 290.734Z" fill="#5C6479"/>
<path d="M139.045 53.5131H138.4C137.352 53.5131 136.546 52.7071 136.546 51.6592V51.0144C136.546 50.2083 135.901 49.5635 135.095 49.5635C134.289 49.5635 133.645 50.2083 133.645 51.0144V51.6592C133.645 52.7071 132.838 53.5131 131.791 53.5131H131.146C130.34 53.5131 129.695 54.158 129.695 54.964C129.695 55.7701 130.34 56.4149 131.146 56.4149H131.791C132.838 56.4149 133.645 57.221 133.645 58.2688V58.9137C133.645 59.7197 134.289 60.3646 135.095 60.3646C135.901 60.3646 136.546 59.7197 136.546 58.9137V58.2688C136.546 57.221 137.352 56.4149 138.4 56.4149H139.045C139.851 56.4149 140.496 55.7701 140.496 54.964C140.496 54.2386 139.851 53.5131 139.045 53.5131Z" fill="#4E5567"/>
<path d="M97.9366 27.7999H97.3723C96.5663 27.7999 95.8408 27.1551 95.8408 26.2684V25.7042C95.8408 25.0594 95.2766 24.4951 94.6318 24.4951C93.9869 24.4951 93.4227 25.0594 93.4227 25.7042V26.2684C93.4227 27.0745 92.7778 27.7999 91.8912 27.7999H91.3269C90.6821 27.7999 90.1179 28.3642 90.1179 29.009C90.1179 29.6539 90.6821 30.2181 91.3269 30.2181H91.8912C92.6972 30.2181 93.4227 30.8629 93.4227 31.7496V32.3138C93.4227 32.9587 93.9869 33.5229 94.6318 33.5229C95.2766 33.5229 95.8408 32.9587 95.8408 32.3138V31.7496C95.8408 30.9435 96.4857 30.2181 97.3723 30.2181H97.9366C98.5814 30.2181 99.1457 29.6539 99.1457 29.009C99.1457 28.3642 98.5814 27.7999 97.9366 27.7999Z" fill="#4E5567"/>
<path d="M47.8805 198.28H47.3163C46.5102 198.28 45.7848 197.635 45.7848 196.748V196.184C45.7848 195.539 45.2205 194.975 44.5757 194.975C43.9308 194.975 43.3666 195.539 43.3666 196.184V196.748C43.3666 197.554 42.7218 198.28 41.8351 198.28H41.2709C40.626 198.28 40.0618 198.844 40.0618 199.489C40.0618 200.134 40.626 200.698 41.2709 200.698H41.8351C42.6412 200.698 43.3666 201.343 43.3666 202.23V202.794C43.3666 203.439 43.9308 204.003 44.5757 204.003C45.2205 204.003 45.7848 203.439 45.7848 202.794V202.23C45.7848 201.424 46.4296 200.698 47.3163 200.698H47.8805C48.5253 200.698 49.0896 200.134 49.0896 199.489C49.0896 198.764 48.5253 198.28 47.8805 198.28Z" fill="#4E5567"/>
<path d="M180.557 3.69882H179.993C179.187 3.69882 178.461 3.05398 178.461 2.16732V1.68369C178.461 1.03885 177.897 0.474609 177.252 0.474609C176.607 0.474609 176.043 1.03885 176.043 1.68369V2.24793C176.043 3.05398 175.398 3.77943 174.511 3.77943H173.947C173.302 3.77943 172.738 4.34366 172.738 4.98851C172.738 5.63335 173.302 6.19759 173.947 6.19759H174.511C175.317 6.19759 176.043 6.84243 176.043 7.72909V8.29332C176.043 8.93817 176.607 9.5024 177.252 9.5024C177.897 9.5024 178.461 8.93817 178.461 8.29332V7.56788C178.461 6.76182 179.106 6.03638 179.993 6.03638H180.557C181.202 6.03638 181.766 5.47214 181.766 4.8273C181.766 4.26306 181.282 3.69882 180.557 3.69882Z" fill="#4E5567"/>
<path d="M392.307 99.2965H391.743C390.937 99.2965 390.211 98.6517 390.211 97.765V97.2008C390.211 96.5559 389.647 95.9917 389.002 95.9917C388.357 95.9917 387.793 96.5559 387.793 97.2008V97.765C387.793 98.5711 387.148 99.2965 386.262 99.2965H385.697C385.053 99.2965 384.488 99.8608 384.488 100.506C384.488 101.15 385.053 101.715 385.697 101.715H386.262C387.068 101.715 387.793 102.36 387.793 103.246V103.81C387.793 104.455 388.357 105.019 389.002 105.019C389.647 105.019 390.211 104.455 390.211 103.81V103.246C390.211 102.44 390.856 101.715 391.743 101.715H392.307C392.952 101.715 393.516 101.15 393.516 100.506C393.516 99.8608 392.952 99.2965 392.307 99.2965Z" fill="#4E5567"/>
<path d="M347.571 274.21H347.007C346.201 274.21 345.475 273.565 345.475 272.679V272.114C345.475 271.47 344.911 270.905 344.266 270.905C343.621 270.905 343.057 271.47 343.057 272.114V272.679C343.057 273.485 342.412 274.21 341.526 274.21H341.123C340.478 274.21 339.914 274.774 339.914 275.419C339.914 276.064 340.478 276.628 341.123 276.628H341.687C342.493 276.628 343.218 277.273 343.218 278.16V278.724C343.218 279.369 343.783 279.933 344.427 279.933C345.072 279.933 345.637 279.369 345.637 278.724V278.16C345.637 277.354 346.281 276.628 347.168 276.628H347.732C348.377 276.628 348.941 276.064 348.941 275.419C348.78 274.774 348.216 274.21 347.571 274.21Z" fill="#4E5567"/>
<path d="M42.5606 286.462H42.0769C41.2709 286.462 40.5454 285.817 40.5454 284.931V284.366C40.5454 283.721 39.9812 283.157 39.3363 283.157C38.6915 283.157 38.1273 283.721 38.1273 284.366V284.931C38.1273 285.737 37.4824 286.462 36.5958 286.462H36.0315C35.3867 286.462 34.8225 287.026 34.8225 287.671C34.8225 288.316 35.3867 288.88 36.0315 288.88H36.5958C37.4018 288.88 38.1273 289.525 38.1273 290.412V290.976C38.1273 291.621 38.6915 292.185 39.3363 292.185C39.9812 292.185 40.5454 291.621 40.5454 290.976V290.412C40.5454 289.606 41.1903 288.88 42.0769 288.88H42.6412C43.286 288.88 43.8502 288.316 43.8502 287.671C43.7696 287.026 43.2054 286.462 42.5606 286.462Z" fill="#4E5567"/>
<path d="M296.145 142.904H295.5C294.452 142.904 293.646 142.098 293.646 141.05V140.405C293.646 139.599 293.001 138.955 292.195 138.955C291.389 138.955 290.744 139.599 290.744 140.405V141.05C290.744 142.098 289.938 142.904 288.89 142.904H288.246C287.439 142.904 286.795 143.549 286.795 144.355C286.795 145.161 287.439 145.806 288.246 145.806H288.89C289.938 145.806 290.744 146.612 290.744 147.66V148.305C290.744 149.111 291.389 149.756 292.195 149.756C293.001 149.756 293.646 149.111 293.646 148.305V147.66C293.646 146.612 294.452 145.806 295.5 145.806H296.145C296.951 145.806 297.596 145.161 297.596 144.355C297.596 143.549 296.951 142.904 296.145 142.904Z" fill="#4E5567"/>
<path d="M314.442 253.898H313.797C312.75 253.898 311.943 253.092 311.943 252.044V251.399C311.943 250.593 311.299 249.948 310.493 249.948C309.687 249.948 309.042 250.593 309.042 251.399V252.044C309.042 253.092 308.236 253.898 307.188 253.898H306.462C305.656 253.898 305.011 254.543 305.011 255.349C305.011 256.155 305.656 256.8 306.462 256.8H307.107C308.155 256.8 308.961 257.606 308.961 258.654V259.298C308.961 260.105 309.606 260.749 310.412 260.749C311.218 260.749 311.863 260.105 311.863 259.298V258.654C311.863 257.606 312.669 256.8 313.717 256.8H314.362C315.168 256.8 315.813 256.155 315.813 255.349C315.893 254.543 315.248 253.898 314.442 253.898Z" fill="#4E5567"/>
<path d="M385.052 140.567H384.649C384.005 140.567 383.521 140.083 383.521 139.438V139.116C383.521 138.632 383.118 138.229 382.634 138.229C382.151 138.229 381.748 138.632 381.748 139.116V139.519C381.748 140.164 381.264 140.647 380.619 140.647H380.216C379.733 140.647 379.329 141.05 379.329 141.534C379.329 142.017 379.733 142.42 380.216 142.42H380.619C381.264 142.42 381.748 142.904 381.748 143.549V143.952C381.748 144.436 382.151 144.839 382.634 144.839C383.118 144.839 383.521 144.436 383.521 143.952V143.549C383.521 142.904 384.005 142.42 384.649 142.42H385.052C385.536 142.42 385.939 142.017 385.939 141.534C385.939 140.97 385.536 140.567 385.052 140.567Z" fill="#4E5567"/>
<path d="M347.329 160.557H347.007C346.523 160.557 346.12 160.154 346.12 159.67V159.348C346.12 158.944 345.798 158.622 345.395 158.622C344.992 158.622 344.669 158.944 344.669 159.348V159.67C344.669 160.154 344.266 160.557 343.783 160.557H343.46C343.057 160.557 342.735 160.879 342.735 161.282C342.735 161.685 343.057 162.007 343.46 162.007H343.783C344.266 162.007 344.669 162.411 344.669 162.894V163.217C344.669 163.62 344.992 163.942 345.395 163.942C345.798 163.942 346.12 163.62 346.12 163.217V162.894C346.12 162.411 346.523 162.007 347.007 162.007H347.329C347.732 162.007 348.055 161.685 348.055 161.282C348.055 160.879 347.732 160.557 347.329 160.557Z" fill="#4E5567"/>
<path d="M270.109 56.979H269.787C269.303 56.979 268.9 56.5759 268.9 56.0923V55.7699C268.9 55.3669 268.578 55.0444 268.175 55.0444C267.772 55.0444 267.449 55.3669 267.449 55.7699V56.0923C267.449 56.5759 267.046 56.979 266.563 56.979H266.24C265.837 56.979 265.515 57.3014 265.515 57.7044C265.515 58.1074 265.837 58.4299 266.24 58.4299H266.563C267.046 58.4299 267.449 58.8329 267.449 59.3165V59.6389C267.449 60.042 267.772 60.3644 268.175 60.3644C268.578 60.3644 268.9 60.042 268.9 59.6389V59.3165C268.9 58.8329 269.303 58.4299 269.787 58.4299H270.109C270.512 58.4299 270.835 58.1074 270.835 57.7044C270.754 57.3014 270.512 56.979 270.109 56.979Z" fill="#4E5567"/>
<path d="M349.989 54.3188H349.667C349.183 54.3188 348.78 53.9158 348.78 53.4321V53.1097C348.78 52.7067 348.458 52.3843 348.055 52.3843C347.652 52.3843 347.329 52.7067 347.329 53.1097V53.4321C347.329 53.9158 346.926 54.3188 346.443 54.3188H346.12C345.717 54.3188 345.395 54.6412 345.395 55.0442C345.395 55.4473 345.717 55.7697 346.12 55.7697H346.443C346.926 55.7697 347.329 56.1727 347.329 56.6564V56.9788C347.329 57.3818 347.652 57.7042 348.055 57.7042C348.458 57.7042 348.78 57.3818 348.78 56.9788V56.6564C348.78 56.1727 349.183 55.7697 349.667 55.7697H349.989C350.392 55.7697 350.715 55.4473 350.715 55.0442C350.715 54.6412 350.392 54.3188 349.989 54.3188Z" fill="#4E5567"/>
<path d="M26.4394 121.383H26.0364C25.3916 121.383 24.8273 120.818 24.8273 120.174V119.77C24.8273 119.206 24.4243 118.803 23.8601 118.803C23.2958 118.803 22.8928 119.206 22.8928 119.77V120.174C22.8928 120.818 22.3286 121.383 21.6837 121.383H21.2807C20.7165 121.383 20.3134 121.786 20.3134 122.35C20.3134 122.914 20.7165 123.317 21.2807 123.317H21.6837C22.3286 123.317 22.8928 123.881 22.8928 124.526V124.929C22.8928 125.493 23.2958 125.896 23.8601 125.896C24.4243 125.896 24.8273 125.493 24.8273 124.929V124.526C24.8273 123.881 25.3916 123.317 26.0364 123.317H26.4394C27.0037 123.317 27.4067 122.914 27.4067 122.35C27.4067 121.866 26.9231 121.383 26.4394 121.383Z" fill="#4E5567"/>
<path d="M104.868 237.373H104.465C103.821 237.373 103.256 236.809 103.256 236.164V235.761C103.256 235.197 102.853 234.794 102.289 234.794C101.725 234.794 101.322 235.197 101.322 235.761V236.164C101.322 236.809 100.758 237.373 100.113 237.373H99.7097C99.1455 237.373 98.7425 237.776 98.7425 238.341C98.7425 238.905 99.1455 239.308 99.7097 239.308H100.113C100.758 239.308 101.322 239.872 101.322 240.517V240.92C101.322 241.484 101.725 241.887 102.289 241.887C102.853 241.887 103.256 241.484 103.256 240.92V240.517C103.256 239.872 103.821 239.308 104.465 239.308H104.868C105.433 239.308 105.836 238.905 105.836 238.341C105.836 237.776 105.352 237.373 104.868 237.373Z" fill="#4E5567"/>
<path d="M400.69 277.515H400.287C399.642 277.515 399.078 276.951 399.078 276.306V275.903C399.078 275.339 398.675 274.936 398.111 274.936C397.546 274.936 397.143 275.339 397.143 275.903V276.306C397.143 276.951 396.579 277.515 395.934 277.515H395.531C394.967 277.515 394.564 277.918 394.564 278.482C394.564 279.046 394.967 279.449 395.531 279.449H395.934C396.579 279.449 397.143 280.014 397.143 280.659V281.062C397.143 281.626 397.546 282.029 398.111 282.029C398.675 282.029 399.078 281.626 399.078 281.062V280.659C399.078 280.014 399.642 279.449 400.287 279.449H400.69C401.254 279.449 401.657 279.046 401.657 278.482C401.657 277.999 401.174 277.515 400.69 277.515Z" fill="#4E5567"/>
<path d="M18.4595 70.0371H18.1371C17.5728 70.0371 17.1698 69.6341 17.1698 69.0699V68.7475C17.1698 68.3444 16.8474 67.9414 16.3638 67.9414C15.9607 67.9414 15.5577 68.2638 15.5577 68.7475V69.0699C15.5577 69.6341 15.1547 70.0371 14.5904 70.0371H14.268C13.865 70.0371 13.462 70.3596 13.462 70.8432C13.462 71.2462 13.7844 71.6493 14.268 71.6493H14.671C15.2353 71.6493 15.6383 72.0523 15.6383 72.6165V72.9389C15.6383 73.342 15.9607 73.745 16.4444 73.745C16.8474 73.745 17.2504 73.4226 17.2504 72.9389V72.6165C17.2504 72.0523 17.6534 71.6493 18.2177 71.6493H18.5401C18.9431 71.6493 19.3462 71.3268 19.3462 70.8432C19.2655 70.3596 18.8625 70.0371 18.4595 70.0371Z" fill="#4E5567"/>
<path d="M48.8477 33.6841H48.5253C47.9611 33.6841 47.558 33.2811 47.558 32.7169V32.3944C47.558 31.9914 47.2356 31.5884 46.752 31.5884C46.349 31.5884 45.9459 31.9108 45.9459 32.3944V32.7169C45.9459 33.2811 45.5429 33.6841 44.9787 33.6841H44.6563C44.2532 33.6841 43.8502 34.0065 43.8502 34.4902C43.8502 34.8932 44.1726 35.2962 44.6563 35.2962H44.9787C45.5429 35.2962 45.9459 35.6993 45.9459 36.2635V36.5859C45.9459 36.9889 46.2684 37.392 46.752 37.392C47.155 37.392 47.558 37.0695 47.558 36.5859V36.2635C47.558 35.6993 47.9611 35.2962 48.5253 35.2962H48.8477C49.2508 35.2962 49.6538 34.9738 49.6538 34.4902C49.6538 34.0065 49.3314 33.6841 48.8477 33.6841Z" fill="#4E5567"/>
<path d="M5.88516 191.751H5.56274C4.9985 191.751 4.59548 191.348 4.59548 190.784V190.461C4.59548 190.058 4.27306 189.655 3.78942 189.655C3.3864 189.655 2.98337 189.978 2.98337 190.461V190.784C2.98337 191.348 2.58035 191.751 2.01611 191.751H1.77429C1.37127 191.751 0.968239 192.073 0.968239 192.557C0.968239 192.96 1.29066 193.363 1.77429 193.363H2.09671C2.66095 193.363 3.06398 193.766 3.06398 194.33V194.653C3.06398 195.056 3.3864 195.459 3.87003 195.459C4.27306 195.459 4.67608 195.136 4.67608 194.653V194.33C4.67608 193.766 5.07911 193.363 5.64335 193.363H5.96577C6.36879 193.363 6.77182 193.041 6.77182 192.557C6.69122 192.073 6.36879 191.751 5.88516 191.751Z" fill="#4E5567"/>
<path d="M124.214 94.8633H123.891C123.327 94.8633 122.924 94.4603 122.924 93.8961V93.5736C122.924 93.1706 122.602 92.7676 122.118 92.7676C121.715 92.7676 121.312 93.09 121.312 93.5736V93.8961C121.312 94.4603 120.909 94.8633 120.345 94.8633H120.022C119.619 94.8633 119.216 95.1857 119.216 95.6694C119.216 96.0724 119.539 96.4754 120.022 96.4754H120.345C120.909 96.4754 121.312 96.8785 121.312 97.4427V97.7651C121.312 98.1681 121.634 98.5712 122.118 98.5712C122.521 98.5712 122.924 98.2487 122.924 97.7651V97.4427C122.924 96.8785 123.327 96.4754 123.891 96.4754H124.214C124.617 96.4754 125.02 96.153 125.02 95.6694C125.02 95.1857 124.617 94.8633 124.214 94.8633Z" fill="#4E5567"/>
<path d="M102.531 188.849H102.209C101.644 188.849 101.241 188.446 101.241 187.882V187.559C101.241 187.156 100.919 186.753 100.435 186.753C100.032 186.753 99.6292 187.076 99.6292 187.559V187.882C99.6292 188.446 99.2262 188.849 98.6619 188.849H98.3395C97.9365 188.849 97.5335 189.172 97.5335 189.655C97.5335 190.058 97.8559 190.461 98.3395 190.461H98.6619C99.2262 190.461 99.6292 190.864 99.6292 191.429V191.751C99.6292 192.154 99.9516 192.557 100.435 192.557C100.838 192.557 101.241 192.235 101.241 191.751V191.429C101.241 190.864 101.644 190.461 102.209 190.461H102.531C102.934 190.461 103.337 190.139 103.337 189.655C103.256 189.172 102.934 188.849 102.531 188.849Z" fill="#4E5567"/>
<path d="M241.656 22.7216C239.157 22.7216 237.142 20.7065 237.142 18.2077C237.142 15.709 239.157 13.6938 241.656 13.6938C244.154 13.6938 246.17 15.709 246.17 18.2077C246.17 20.7065 244.074 22.7216 241.656 22.7216ZM241.656 16.1926C240.527 16.1926 239.56 17.0793 239.56 18.2884C239.56 19.4974 240.447 20.3841 241.656 20.3841C242.784 20.3841 243.751 19.4974 243.751 18.2884C243.751 17.0793 242.784 16.1926 241.656 16.1926Z" fill="#4E5567"/>
<path d="M84.1529 72.3745C81.6541 72.3745 79.639 70.3593 79.639 67.8606C79.639 65.3618 81.6541 63.3467 84.1529 63.3467C86.6516 63.3467 88.6668 65.3618 88.6668 67.8606C88.6668 70.3593 86.571 72.3745 84.1529 72.3745ZM84.1529 65.8454C83.0244 65.8454 82.0571 66.7321 82.0571 67.9412C82.0571 69.1503 82.9438 70.0369 84.1529 70.0369C85.362 70.0369 86.2486 69.1503 86.2486 67.9412C86.2486 66.7321 85.2813 65.8454 84.1529 65.8454Z" fill="#4E5567"/>
<path d="M278.492 36.7468C276.719 36.7468 275.187 35.2959 275.187 33.442C275.187 31.5881 276.638 30.1372 278.492 30.1372C280.266 30.1372 281.797 31.5881 281.797 33.442C281.797 35.2959 280.266 36.7468 278.492 36.7468ZM278.492 31.9105C277.686 31.9105 276.961 32.5554 276.961 33.442C276.961 34.3287 277.606 34.9735 278.492 34.9735C279.298 34.9735 280.024 34.3287 280.024 33.442C280.024 32.5554 279.298 31.9105 278.492 31.9105Z" fill="#4E5567"/>
<path d="M302.674 298.795C300.901 298.795 299.369 297.344 299.369 295.49C299.369 293.717 300.82 292.185 302.674 292.185C304.447 292.185 305.979 293.636 305.979 295.49C305.898 297.344 304.447 298.795 302.674 298.795ZM302.674 294.039C301.868 294.039 301.142 294.684 301.142 295.57C301.142 296.377 301.787 297.102 302.674 297.102C303.48 297.102 304.205 296.457 304.205 295.57C304.205 294.684 303.48 294.039 302.674 294.039Z" fill="#4E5567"/>
<path d="M173.947 294.603H148.073C147.509 294.603 147.106 294.2 147.106 293.636C147.106 293.072 147.509 292.669 148.073 292.669H173.947C174.512 292.669 174.915 293.072 174.915 293.636C174.915 294.2 174.431 294.603 173.947 294.603Z" fill="#5C6479"/>
<path d="M172.657 288.397C173.383 288.881 173.867 289.687 173.867 290.493V292.589H148.395V290.412C148.395 289.606 148.798 288.8 149.443 288.317L152.748 286.06H152.829V276.951H169.03V286.221L172.657 288.397Z" fill="#848B9D"/>
<path opacity="0.3" d="M173.786 290.573V292.669H166.29V290.573C166.29 289.687 166.129 288.881 165.806 288.478L164.355 286.221V276.951H169.03V286.221L172.658 288.478C173.383 288.881 173.786 289.687 173.786 290.573Z" fill="#2C3039"/>
<g filter="url(#filter0_d_103_10591)">
<path d="M162.663 71.6494C161.695 70.7627 160.164 70.7627 159.196 71.6494C154.441 75.6796 147.025 89.9468 147.025 105.101V283.158C147.025 284.85 148.395 286.14 150.007 286.14H160.889H171.852C173.544 286.14 174.834 284.77 174.834 283.158V105.101C174.915 89.9468 167.418 75.7602 162.663 71.6494Z" fill="url(#paint0_linear_103_10591)"/>
</g>
<path d="M174.915 105.1V283.158C174.915 284.85 173.544 286.221 171.852 286.221H164.113C164.597 286.221 165 284.85 165 283.158V105.1C165 89.9466 162.824 75.7601 161.453 71.6492C161.292 71.2462 161.131 71.0044 160.97 71.0044C161.615 71.0044 162.179 71.2462 162.663 71.6492C167.418 75.7601 174.915 89.9466 174.915 105.1Z" fill="url(#paint1_linear_103_10591)"/>
<path d="M211.671 25.7043C209.333 24.5758 205.867 24.5758 203.529 25.7043C192.486 31.266 174.834 57.3015 174.834 78.0171C174.834 101.473 174.834 275.339 174.834 275.339H207.56H240.285C240.285 275.339 240.285 101.473 240.285 78.0171C240.285 57.3821 222.713 31.3466 211.671 25.7043Z" fill="url(#paint2_linear_103_10591)"/>
<path d="M240.285 78.0979C240.285 101.554 240.285 275.42 240.285 275.42H221.182C221.182 275.42 221.182 101.554 221.182 78.0979C221.182 57.3824 213.847 31.3469 209.252 25.7851C208.769 25.2209 208.124 24.8984 207.56 24.8984C209.011 24.8984 210.462 25.2209 211.59 25.7851C222.714 31.3469 240.285 57.3824 240.285 78.0979Z" fill="url(#paint3_linear_103_10591)"/>
<path opacity="0.2" d="M207.56 24.8984C207.076 24.8984 206.592 25.2209 206.27 25.7851C202.643 31.3469 197 57.3824 197 78.0979C197 101.554 197 275.42 197 275.42H183.459C183.459 275.42 183.459 101.554 183.459 78.0979C183.459 57.3824 196.436 31.3469 204.658 25.7851C205.464 25.1403 206.512 24.8984 207.56 24.8984Z" fill="url(#paint4_linear_103_10591)"/>
<path opacity="0.4" fill-rule="evenodd" clip-rule="evenodd" d="M175.5 91.5005H240.5V94.5005H175.5V91.5005Z" fill="#2E323B"/>
<path opacity="0.4" fill-rule="evenodd" clip-rule="evenodd" d="M174.5 126.5H240.5V129.5H174.5V126.5Z" fill="#2E323B"/>
<path opacity="0.4" fill-rule="evenodd" clip-rule="evenodd" d="M146.525 170.745H175.415V173.745H146.525V170.745Z" fill="#2C3039"/>
<path opacity="0.4" fill-rule="evenodd" clip-rule="evenodd" d="M146.525 143H175.415V146H146.525V143Z" fill="#2C3039"/>
<path opacity="0.4" fill-rule="evenodd" clip-rule="evenodd" d="M146.525 106H175.415V109H146.525V106Z" fill="#2C3039"/>
<path d="M267.208 294.603H241.333C240.769 294.603 240.366 294.2 240.366 293.636C240.366 293.072 240.769 292.669 241.333 292.669H267.208C267.772 292.669 268.175 293.072 268.175 293.636C268.175 294.2 267.691 294.603 267.208 294.603Z" fill="#5C6479"/>
<path d="M265.918 288.397C266.643 288.881 267.127 289.687 267.127 290.493V292.589H241.656V290.412C241.656 289.606 242.059 288.8 242.704 288.317L246.008 286.06H246.089V276.951H262.291V286.221L265.918 288.397Z" fill="#848B9D"/>
<path opacity="0.3" d="M267.046 290.573V292.669H260.356V290.573C260.356 289.687 260.114 288.881 259.792 288.478L258.099 286.221V276.951H262.291V286.221L265.918 288.478C266.643 288.881 267.046 289.687 267.046 290.573Z" fill="#2C3039"/>
<g filter="url(#filter1_d_103_10591)">
<path d="M255.923 71.6494C254.956 70.7627 253.424 70.7627 252.457 71.6494C247.701 75.6796 240.285 89.9468 240.285 105.101V283.158C240.285 284.85 241.656 286.14 243.268 286.14H254.15H265.031C266.724 286.14 268.014 284.77 268.014 283.158V105.101C268.175 89.9468 260.679 75.7602 255.923 71.6494Z" fill="url(#paint5_linear_103_10591)"/>
</g>
<path d="M268.175 105.1V283.158C268.175 284.85 266.805 286.221 265.112 286.221H257.374C257.857 286.221 258.26 284.85 258.26 283.158V105.1C258.26 89.9466 256.084 75.7601 254.714 71.6492C254.553 71.2462 254.391 71.0044 254.23 71.0044C254.875 71.0044 255.439 71.2462 255.923 71.6492C260.679 75.7601 268.175 89.9466 268.175 105.1Z" fill="url(#paint6_linear_103_10591)"/>
<path opacity="0.4" fill-rule="evenodd" clip-rule="evenodd" d="M239.525 170.745H268.415V173.745H239.525V170.745Z" fill="#2C3039"/>
<path opacity="0.4" fill-rule="evenodd" clip-rule="evenodd" d="M239.525 143H268.415V146H239.525V143Z" fill="#2C3039"/>
<path opacity="0.4" fill-rule="evenodd" clip-rule="evenodd" d="M239.525 106H268.415V109H239.525V106Z" fill="#2C3039"/>
<g filter="url(#filter2_d_103_10591)">
<path d="M188.78 131.297L190.15 126.138L193.536 125.332L199.178 124.042L199.823 123.881L200.306 131.297L208.689 253.655L190.553 278.401L183.46 277.192L134.129 268.729C131.066 268.245 128.89 265.585 128.89 262.522V239.227C128.89 236.486 130.019 233.746 131.953 231.811L165.163 198.118C170.563 192.637 174.432 185.866 176.367 178.451L183.46 151.69L188.78 131.297Z" fill="#848B9D"/>
</g>
<circle cx="166" cy="234" r="7" stroke="#2D313A" stroke-width="2"/>
<path d="M193.454 125.332V159.106L189.826 163.136L189.504 160.96C189.343 159.912 188.456 159.106 187.408 159.106C186.441 159.106 185.635 159.75 185.312 160.637L175.64 196.345C174.995 198.763 173.705 200.94 172.013 202.713L135.74 239.066C135.015 239.792 134.612 240.759 134.612 241.726V249.625C134.612 251.721 136.304 253.414 138.4 253.414H184.748L185.796 260.91C185.796 261.394 138.884 260.991 128.808 260.91V239.066C128.808 236.326 129.856 233.585 131.871 231.65L165.081 197.957C170.481 192.476 174.35 185.705 176.285 178.29L190.068 126.057L193.454 125.332Z" fill="#2C3039"/>
<path d="M208.688 253.655L190.552 278.32L183.378 277.111V151.609L188.779 131.296H200.305L208.688 253.655Z" fill="url(#paint7_linear_103_10591)"/>
<g filter="url(#filter3_d_103_10591)">
<path d="M288.729 239.146V262.441C288.729 265.504 286.553 268.164 283.49 268.648L246.492 275.016L227.066 278.321L208.93 253.655L217.797 123.881L218.441 124.042L224.084 125.412L227.469 126.218L239.802 172.728L241.333 178.451C243.268 185.866 247.137 192.637 252.537 198.118L285.747 231.811C287.681 233.746 288.729 236.406 288.729 239.146Z" fill="#848B9D"/>
</g>
<path opacity="0.4" d="M258.019 228.426H242.704V239.307H258.019V228.426Z" fill="#2C3039"/>
<path d="M250.684 228.426H242.704V234.391H250.684V228.426Z" fill="#2C3039"/>
<path d="M224.084 125.332V159.106L227.711 163.136L228.033 160.96C228.195 159.912 229.081 159.106 230.129 159.106C231.096 159.106 231.902 159.75 232.225 160.637L241.978 196.345C242.623 198.763 243.913 200.94 245.605 202.713L281.878 239.066C282.603 239.792 283.006 240.759 283.006 241.726V249.625C283.006 251.721 281.314 253.414 279.218 253.414H232.95L231.902 260.91C231.902 261.394 278.815 260.991 288.89 260.91V239.066C288.89 236.326 287.843 233.585 285.827 231.65L252.457 198.038C247.056 192.557 243.187 185.786 241.253 178.37L227.469 126.138L224.084 125.332Z" fill="#2C3039"/>
<path d="M246.492 252.527V275.016L227.066 278.321L208.93 253.655L217.797 123.881L218.441 124.042L224.084 125.412L227.469 126.218L239.802 172.728V242.935C243.671 244.305 246.492 248.094 246.492 252.527Z" fill="url(#paint8_linear_103_10591)"/>
<g filter="url(#filter4_d_103_10591)">
<path d="M227.711 119.528V275.419H189.262V119.528C189.262 112.758 190.713 106.067 193.615 99.9413C194.179 98.8128 194.743 97.6037 195.388 96.4753V96.3947L203.449 83.0142C205.706 79.2257 211.187 79.2257 213.524 83.0142L221.585 96.3947V96.4753C222.23 97.6037 222.794 98.7322 223.358 99.8607C226.26 106.067 227.711 112.758 227.711 119.528Z" fill="#848B9D"/>
</g>
<path d="M227.711 119.528V275.419H216.184V119.528C216.184 112.757 215.62 106.067 214.411 99.9411C214.169 98.8127 214.008 97.6842 213.686 96.5557V96.4751L210.461 83.0946C209.978 81.1601 209.252 80.2734 208.446 80.2734C210.381 80.2734 212.315 81.2407 213.444 83.0946L221.504 96.4751V96.5557C222.149 97.6842 222.713 98.8127 223.278 99.9411C226.26 106.067 227.711 112.757 227.711 119.528Z" fill="url(#paint9_linear_103_10591)"/>
<path d="M223.358 99.9413C221.988 97.8456 219.65 96.4753 217.071 96.4753H200.063C197.484 96.4753 195.066 97.8456 193.696 99.9413C194.26 98.8128 194.824 97.6037 195.469 96.4753V96.3947L203.529 83.0142C205.786 79.2257 211.267 79.2257 213.605 83.0142L221.666 96.3947V96.4753C222.23 97.6037 222.875 98.7322 223.358 99.9413Z" fill="#69768C"/>
<path d="M217.152 117.03C217.152 117.674 216.426 117.916 216.023 117.433C215.137 116.304 213.766 115.659 212.154 115.659H204.738C203.288 115.659 201.917 116.304 201.031 117.352C200.95 117.433 200.95 117.433 200.869 117.513C200.466 117.997 199.741 117.674 199.741 117.11C199.741 116.627 199.741 115.982 199.741 115.176C199.741 112.435 201.998 110.259 204.738 110.259H212.154C212.315 110.259 212.477 110.259 212.638 110.259C213.363 110.339 214.008 110.581 214.653 110.904C216.104 111.79 217.152 113.402 217.152 115.176C217.152 115.982 217.152 116.546 217.152 117.03Z" fill="#2C3039"/>
<path opacity="0.3" fill-rule="evenodd" clip-rule="evenodd" d="M189.027 161.958H228.211V164.958H189.027V161.958Z" fill="#2C3039"/>
<path opacity="0.3" fill-rule="evenodd" clip-rule="evenodd" d="M189.027 205H228.211V208H189.027V205Z" fill="#2C3039"/>
<g filter="url(#filter5_d_103_10591)">
<path d="M198.451 242.209H193.776C188.053 242.209 183.459 246.804 183.459 252.527V278.482H208.769V252.527C208.688 246.804 204.094 242.209 198.451 242.209Z" fill="url(#paint10_linear_103_10591)"/>
</g>
<path d="M208.688 252.527V278.482H198.612V244.789C198.612 243.338 197.484 242.209 196.033 242.209H198.371C204.094 242.209 208.688 246.804 208.688 252.527Z" fill="url(#paint11_linear_103_10591)"/>
<g filter="url(#filter6_d_103_10591)">
<path d="M223.52 242.209H218.844C213.121 242.209 208.527 246.804 208.527 252.527V278.482H233.837V252.527C233.837 246.804 229.243 242.209 223.52 242.209Z" fill="url(#paint12_linear_103_10591)"/>
</g>
<path d="M233.837 252.527V278.482H225.051V245.595C225.051 243.741 223.519 242.209 221.666 242.209H223.519C229.242 242.209 233.837 246.804 233.837 252.527Z" fill="url(#paint13_linear_103_10591)"/>
<path opacity="0.4" d="M208.446 252.527V278.482H217.232V245.595C217.232 243.741 218.764 242.209 220.618 242.209H218.764C213.121 242.209 208.446 246.804 208.446 252.527Z" fill="url(#paint14_linear_103_10591)"/>
<g filter="url(#filter7_d_103_10591)">
<path d="M221.827 278.321H195.227L189.746 282.029C188.617 282.835 187.973 284.044 187.973 285.414V289.041H229.887V285.575C229.887 284.124 229.162 282.835 227.953 282.109L221.827 278.321Z" fill="#848B9D"/>
</g>
<path opacity="0.3" d="M229.887 285.656V289.122H217.313V285.656C217.313 284.205 216.991 282.915 216.507 282.109L214.089 278.321H221.827L227.953 282.109C229.162 282.835 229.887 284.205 229.887 285.656Z" fill="#2C3039"/>
<path d="M205.948 138.874H204.174C203.288 138.874 202.562 138.148 202.562 137.261V135.488C202.562 134.601 203.288 133.876 204.174 133.876H205.948C206.834 133.876 207.56 134.601 207.56 135.488V137.261C207.56 138.148 206.834 138.874 205.948 138.874Z" fill="#2C3039"/>
<path d="M213.444 138.874H211.671C210.784 138.874 210.058 138.148 210.058 137.261V135.488C210.058 134.601 210.784 133.876 211.671 133.876H213.444C214.331 133.876 215.056 134.601 215.056 135.488V137.261C215.056 138.148 214.331 138.874 213.444 138.874Z" fill="#2C3039"/>
<g filter="url(#filter8_d_103_10591)">
<path d="M211.106 295.571H205.867V235.923C205.867 234.472 207.076 233.343 208.446 233.343C209.897 233.343 211.026 234.552 211.026 235.923V295.571H211.106Z" fill="#8E96AB"/>
</g>
<path d="M169.917 334.342C173.141 331.682 177.333 330.07 181.927 330.07C189.343 330.07 195.711 334.342 198.774 340.549" stroke="#353B4A" stroke-width="2" stroke-miterlimit="10" stroke-linecap="round" stroke-linejoin="round"/>
<path opacity="0.3" d="M209.494 110.178L206.592 115.659H204.738C203.288 115.659 201.917 116.304 201.031 117.352L204.819 110.178H209.494Z" fill="#5C6479"/>
<path opacity="0.3" d="M214.653 110.823L212.154 115.659H209.736L212.638 110.178C213.363 110.259 214.008 110.501 214.653 110.823Z" fill="#5C6479"/>
<path d="M60.5354 382.705C60.2936 380.448 60.1324 378.191 60.1324 375.934C60.1324 342.966 86.8127 316.286 119.78 316.286C147.267 316.286 170.4 334.825 177.332 360.135" stroke="#353B4A" stroke-width="2" stroke-miterlimit="10" stroke-linecap="round" stroke-linejoin="round"/>
<path d="M67.1453 403.985C64.5659 399.148 62.6314 393.828 61.4223 388.347" stroke="#353B4A" stroke-width="2" stroke-miterlimit="10" stroke-linecap="round" stroke-linejoin="round"/>
<path d="M177.816 359.894C178.461 349.093 187.489 340.468 198.451 340.468C202.562 340.468 206.351 341.677 209.575 343.692" stroke="#353B4A" stroke-width="2" stroke-miterlimit="10" stroke-linecap="round" stroke-linejoin="round"/>
<path d="M218.441 329.102C221.746 326.845 225.777 325.556 230.049 325.556C236.9 325.556 242.865 328.861 246.653 333.939" stroke="#353B4A" stroke-width="2" stroke-miterlimit="10" stroke-linecap="round" stroke-linejoin="round"/>
<path d="M339.994 362.715C342.815 368.518 344.347 374.967 344.347 381.818C344.347 385.365 343.944 388.831 343.138 392.136" stroke="#353B4A" stroke-width="2" stroke-miterlimit="10" stroke-linecap="round" stroke-linejoin="round"/>
<path d="M263.983 356.669C271.963 345.223 285.183 337.727 300.175 337.727C314.442 337.727 327.178 344.498 335.239 355.057" stroke="#353B4A" stroke-width="2" stroke-miterlimit="10" stroke-linecap="round" stroke-linejoin="round"/>
<path d="M344.347 378.755C344.75 378.755 345.153 378.755 345.556 378.755C356.276 378.755 364.982 387.461 364.982 398.181C364.982 402.05 363.853 405.597 361.919 408.579" stroke="#353B4A" stroke-width="2" stroke-miterlimit="10" stroke-linecap="round" stroke-linejoin="round"/>
<path opacity="0.3" d="M344.347 381.899C344.347 412.69 313.556 433.97 284.78 423.249C312.347 429.295 338.463 408.337 338.463 380.125C338.463 361.183 326.533 344.982 309.687 338.775C329.516 343.128 344.347 360.78 344.347 381.899Z" fill="#414655"/>
<path d="M320.004 421.315C319.279 421.718 318.553 422.04 317.828 422.363" stroke="#353B4A" stroke-width="2" stroke-miterlimit="10" stroke-linecap="round" stroke-linejoin="round"/>
<path d="M343.218 391.652C340.8 402.212 334.674 411.32 326.211 417.527" stroke="#353B4A" stroke-width="2" stroke-miterlimit="10" stroke-linecap="round" stroke-linejoin="round"/>
<path d="M129.776 390.443C134.934 391.249 139.045 395.118 140.254 400.116" stroke="#353B4A" stroke-width="2" stroke-miterlimit="10" stroke-linecap="round" stroke-linejoin="round"/>
<path d="M135.015 392.216C139.126 385.768 146.38 381.415 154.602 381.415C159.277 381.415 163.63 382.785 167.257 385.203" stroke="#353B4A" stroke-width="2" stroke-miterlimit="10" stroke-linecap="round" stroke-linejoin="round"/>
<path d="M163.307 383.108C163.227 382.544 163.227 381.98 163.227 381.415C163.227 368.599 173.625 358.282 186.36 358.282C199.096 358.282 209.494 368.68 209.494 381.415C209.494 383.108 209.333 384.72 209.011 386.332" stroke="#353B4A" stroke-width="2" stroke-miterlimit="10" stroke-linecap="round" stroke-linejoin="round"/>
<path d="M209.011 386.332C210.784 388.025 212.315 390.04 213.363 392.297" stroke="#353B4A" stroke-width="2" stroke-miterlimit="10" stroke-linecap="round" stroke-linejoin="round"/>
<path d="M210.784 398.665C214.653 385.204 226.986 375.37 241.736 375.37C257.051 375.37 269.868 386.091 273.092 400.358" stroke="#353B4A" stroke-width="2" stroke-miterlimit="10" stroke-linecap="round" stroke-linejoin="round"/>
<path opacity="0.3" d="M231.58 438C218.764 433.728 209.494 421.718 209.494 407.451C209.494 392.539 219.65 380.045 233.353 376.337C206.995 387.863 205.947 425.023 231.58 438Z" fill="#414655"/>
<path d="M209.575 405.919C209.575 405.355 209.655 404.871 209.655 404.388" stroke="#353B4A" stroke-width="2" stroke-miterlimit="10" stroke-linecap="round" stroke-linejoin="round"/>
<path d="M262.533 425.99C262.452 425.184 262.371 424.458 262.371 423.652C262.371 414.786 269.545 407.531 278.492 407.531C287.359 407.531 294.613 414.705 294.613 423.652" stroke="#353B4A" stroke-width="2" stroke-miterlimit="10" stroke-linecap="round" stroke-linejoin="round"/>
<path d="M386.423 381.979C387.551 380.206 389.566 378.997 391.823 378.997C395.289 378.997 398.111 381.818 398.111 385.284" stroke="#353B4A" stroke-width="2" stroke-miterlimit="10" stroke-linecap="round" stroke-linejoin="round"/>
<path d="M385.617 386.493C385.617 386.413 385.617 386.332 385.536 386.251" stroke="#353B4A" stroke-width="2" stroke-miterlimit="10" stroke-linecap="round" stroke-linejoin="round"/>
<path d="M396.498 389.476C395.37 390.766 393.677 391.572 391.743 391.572C389.566 391.572 387.712 390.524 386.584 388.912" stroke="#353B4A" stroke-width="2" stroke-miterlimit="10" stroke-linecap="round" stroke-linejoin="round"/>
<path d="M152.023 403.501C153.151 401.728 155.166 400.519 157.423 400.519C160.889 400.519 163.71 403.34 163.71 406.806" stroke="#353B4A" stroke-width="2" stroke-miterlimit="10" stroke-linecap="round" stroke-linejoin="round"/>
<path d="M151.217 408.095C151.217 408.015 151.217 407.934 151.136 407.854" stroke="#353B4A" stroke-width="2" stroke-miterlimit="10" stroke-linecap="round" stroke-linejoin="round"/>
<path d="M162.098 410.997C160.97 412.287 159.277 413.093 157.343 413.093C155.166 413.093 153.312 412.045 152.184 410.433" stroke="#353B4A" stroke-width="2" stroke-miterlimit="10" stroke-linecap="round" stroke-linejoin="round"/>
<path d="M44.6563 409.708C52.475 406.081 61.1804 403.985 70.2888 403.985C71.9815 403.985 73.6742 404.065 75.2863 404.227" stroke="#353B4A" stroke-width="2" stroke-miterlimit="10" stroke-linecap="round" stroke-linejoin="round"/>
<path d="M34.9032 415.431C36.3541 414.383 37.805 413.415 39.3365 412.529" stroke="#353B4A" stroke-width="2" stroke-miterlimit="10" stroke-linecap="round" stroke-linejoin="round"/>
<path d="M389.083 414.221C381.264 410.594 372.559 408.499 363.45 408.499C361.758 408.499 360.065 408.579 358.453 408.74" stroke="#353B4A" stroke-width="2" stroke-miterlimit="10" stroke-linecap="round" stroke-linejoin="round"/>
<path d="M295.016 206.26C295.016 199.812 300.256 194.572 306.704 194.572C307.994 194.572 309.203 194.814 310.412 195.137" stroke="#353B4A" stroke-width="2" stroke-miterlimit="10" stroke-linecap="round" stroke-linejoin="round"/>
<path d="M372.962 207.469H393.597" stroke="#353B4A" stroke-width="2" stroke-miterlimit="10" stroke-linecap="round" stroke-linejoin="round"/>
<path d="M338.06 199.408C342.493 199.408 346.04 202.955 346.04 207.388H363.45" stroke="#353B4A" stroke-width="2" stroke-miterlimit="10" stroke-linecap="round" stroke-linejoin="round"/>
<path d="M310.493 195.136C312.266 189.575 317.505 185.544 323.712 185.544C331.369 185.544 337.576 191.751 337.576 199.409" stroke="#353B4A" stroke-width="2" stroke-miterlimit="10" stroke-linecap="round" stroke-linejoin="round"/>
<path d="M122.118 223.026C122.118 220.043 119.7 217.544 116.637 217.544C116.073 217.544 115.428 217.625 114.944 217.786" stroke="#353B4A" stroke-width="2" stroke-miterlimit="10" stroke-linecap="round" stroke-linejoin="round"/>
<path d="M85.7649 223.509H76.0923" stroke="#353B4A" stroke-width="2" stroke-miterlimit="10" stroke-linecap="round" stroke-linejoin="round"/>
<path d="M102.047 219.802C99.9516 219.802 98.3395 221.494 98.3395 223.51H90.1984" stroke="#353B4A" stroke-width="2" stroke-miterlimit="10" stroke-linecap="round" stroke-linejoin="round"/>
<path d="M114.863 217.786C114.057 215.207 111.559 213.272 108.737 213.272C105.191 213.272 102.289 216.174 102.289 219.721" stroke="#353B4A" stroke-width="2" stroke-miterlimit="10" stroke-linecap="round" stroke-linejoin="round"/>
<path d="M16.3641 266.553C16.3641 263.087 19.1853 260.185 22.7319 260.185C23.4573 260.185 24.1022 260.266 24.747 260.507" stroke="#353B4A" stroke-width="2" stroke-miterlimit="10" stroke-linecap="round" stroke-linejoin="round"/>
<path d="M39.6589 262.845C42.0771 262.845 44.0116 264.779 44.0116 267.197H53.4424" stroke="#353B4A" stroke-width="2" stroke-miterlimit="10" stroke-linecap="round" stroke-linejoin="round"/>
<path d="M24.747 260.588C25.7142 257.606 28.5354 255.349 31.9208 255.349C36.0317 255.349 39.4171 258.734 39.4171 262.845" stroke="#353B4A" stroke-width="2" stroke-miterlimit="10" stroke-linecap="round" stroke-linejoin="round"/>
<path opacity="0.3" d="M297.515 337.808C306.382 318.543 325.888 305.163 348.538 305.163C379.571 305.163 404.72 330.311 404.72 361.345C404.72 376.498 398.755 390.282 389.002 400.357" stroke="#353B4A" stroke-width="2" stroke-miterlimit="10" stroke-linecap="round" stroke-linejoin="round"/>
<path opacity="0.3" d="M5.88525 393.909C0.162274 373.435 6.36888 350.624 23.6184 336.034C41.0292 321.284 64.8077 318.946 84.153 328.135" stroke="#353B4A" stroke-width="2" stroke-miterlimit="10" stroke-linecap="round" stroke-linejoin="round"/>
<path d="M71.0142 291.943H77.7044V291.54C77.7044 288.074 80.5256 285.253 83.9916 285.253C85.6037 285.253 87.0546 285.898 88.1831 286.865V286.785C89.8758 281.626 94.7121 277.837 100.435 277.837C107.528 277.837 113.332 283.641 113.332 290.734C113.332 291.379 113.251 292.105 113.171 292.749L113.332 292.911H116.798" stroke="#353B4A" stroke-width="2" stroke-miterlimit="10" stroke-linecap="round" stroke-linejoin="round"/>
<path d="M374.493 247.852H368.125V247.449C368.125 244.144 365.465 241.484 362.161 241.484C360.629 241.484 359.259 242.049 358.13 243.016V242.935C356.518 238.018 351.924 234.391 346.362 234.391C339.591 234.391 334.029 239.872 334.029 246.724C334.029 247.369 334.11 248.013 334.191 248.658L334.029 248.819H330.725" stroke="#353B4A" stroke-width="2" stroke-miterlimit="10" stroke-linecap="round" stroke-linejoin="round"/>
<g filter="url(#filter9_d_103_10591)">
<path d="M346.424 107.265C355.71 97.9785 355.71 82.9229 346.424 73.6369C337.138 64.3508 322.082 64.3508 312.796 73.6369C303.51 82.9229 303.51 97.9785 312.796 107.265C322.082 116.551 337.138 116.551 346.424 107.265Z" fill="#414655"/>
</g>
<g filter="url(#filter10_d_103_10591)">
<path d="M315.248 71.4879C298.805 56.8984 285.747 48.193 283.167 50.7724C280.507 53.4323 290.261 67.8607 306.301 85.5133C332.74 114.773 365.062 141.131 369.334 136.859C373.768 132.426 345.072 97.8459 315.248 71.4879ZM340.881 111.388C312.105 89.5435 287.762 53.1099 313.878 72.5358C332.256 86.1581 355.954 113.645 352.569 117.03C351.359 118.239 346.926 115.982 340.881 111.388Z" fill="#D5DDEA"/>
</g>
<path opacity="0.3" d="M294.21 60.2032C291.228 63.1856 303.48 80.2739 321.616 98.4101C339.752 116.546 356.841 128.798 359.823 125.816C366.836 118.803 301.304 53.1099 294.21 60.2032ZM302.996 67.4577C305.173 65.2813 318.07 74.551 331.772 88.2539C345.475 101.957 354.745 114.773 352.569 117.03C347.329 122.269 297.757 72.697 302.996 67.4577Z" fill="url(#paint15_linear_103_10591)"/>
<g filter="url(#filter11_d_103_10591)">
<path d="M340.881 111.388C330.322 103.408 316.619 89.7049 308.639 79.1456C315.974 65.4427 334.916 62.0573 346.443 73.5839C357.889 85.0298 354.664 103.972 340.881 111.388Z" fill="#414655"/>
</g>
<path opacity="0.3" d="M346.362 107.357C344.669 108.969 342.815 110.34 340.881 111.388C330.322 103.408 316.619 89.7048 308.639 79.1455C309.606 77.2916 310.976 75.6795 312.508 74.0674C310.815 80.677 341.687 110.904 346.362 107.357Z" fill="#1E1F28"/>
<path d="M345.878 97.6849C347.704 97.6849 349.183 95.267 349.183 92.2843C349.183 89.3017 347.704 86.8838 345.878 86.8838C344.053 86.8838 342.574 89.3017 342.574 92.2843C342.574 95.267 344.053 97.6849 345.878 97.6849Z" fill="#2C3039"/>
<path d="M337.657 81.3215C339.126 81.3215 340.317 79.8779 340.317 78.0973C340.317 76.3166 339.126 74.873 337.657 74.873C336.188 74.873 334.997 76.3166 334.997 78.0973C334.997 79.8779 336.188 81.3215 337.657 81.3215Z" fill="#2C3039"/>
<path d="M321.271 78.8016C322.633 78.5811 323.593 77.5118 323.416 76.4132C323.238 75.3146 321.989 74.6028 320.627 74.8234C319.265 75.0439 318.305 76.1132 318.482 77.2118C318.66 78.3104 319.909 79.0222 321.271 78.8016Z" fill="#2C3039"/>
<path d="M330.117 87.7343C332.314 87.3786 333.853 85.5941 333.554 83.7485C333.255 81.9029 331.232 80.6951 329.035 81.0508C326.838 81.4065 325.299 83.191 325.598 85.0366C325.896 86.8822 327.92 88.09 330.117 87.7343Z" fill="#2C3039"/>
<path d="M115.106 131.216C115.106 156.929 89.1508 174.663 65.211 165.232C58.9238 162.733 53.5232 158.622 49.493 153.302C31.3568 129.443 48.2033 94.6216 78.5915 94.6216C82.783 94.6216 86.7326 95.347 90.4405 96.5561C104.869 101.634 115.106 115.337 115.106 131.216Z" fill="url(#paint16_linear_103_10591)"/>
<path opacity="0.5" d="M73.9967 134.683C73.9967 139.841 69.8052 144.033 64.6464 144.033C63.1955 144.033 61.8253 143.711 60.5356 143.066C57.392 141.534 55.2962 138.391 55.2962 134.683C55.2962 129.524 59.4877 125.333 64.6464 125.333C67.3064 125.333 69.8052 126.461 71.4979 128.315C73.0294 129.927 73.9967 132.184 73.9967 134.683Z" fill="#69768C"/>
<path opacity="0.4" d="M73.9965 134.682C73.9965 139.841 69.805 144.032 64.6463 144.032C63.1954 144.032 61.8251 143.71 60.5354 143.065C59.0039 141.372 58.0366 139.196 58.0366 136.697C58.0366 131.539 62.2281 127.347 67.3869 127.347C68.8378 127.347 70.208 127.67 71.4977 128.314C73.0292 129.927 73.9965 132.183 73.9965 134.682Z" fill="#69768C"/>
<path opacity="0.5" d="M88.1024 118.964C88.1024 122.511 85.2812 125.332 81.7346 125.332C81.0898 125.332 80.5255 125.252 79.9613 125.091C77.3013 124.365 75.3668 121.866 75.3668 118.964C75.3668 115.418 78.188 112.597 81.7346 112.597C83.5079 112.597 85.0394 113.322 86.1679 114.37C87.377 115.579 88.1024 117.191 88.1024 118.964Z" fill="#69768C"/>
<path opacity="0.4" d="M88.1026 118.965C88.1026 122.511 85.2814 125.333 81.7348 125.333C81.0899 125.333 80.5257 125.252 79.9614 125.091C78.7524 123.962 78.0269 122.35 78.0269 120.577C78.0269 117.03 80.8481 114.209 84.3947 114.209C85.0396 114.209 85.6038 114.29 86.1681 114.451C87.3771 115.579 88.1026 117.191 88.1026 118.965Z" fill="#69768C"/>
<path opacity="0.5" d="M93.3418 145.081C93.3418 148.627 90.5206 151.449 86.9739 151.449C86.6515 151.449 86.2485 151.449 85.9261 151.368C82.8631 150.884 80.6061 148.224 80.6061 145.081C80.6061 141.534 83.4273 138.713 86.9739 138.713C88.2636 138.713 89.4727 139.116 90.5206 139.761C92.2133 140.889 93.3418 142.824 93.3418 145.081Z" fill="#69768C"/>
<path opacity="0.4" d="M93.3419 145.081C93.3419 148.627 90.5207 151.449 86.9741 151.449C86.6517 151.449 86.2486 151.449 85.9262 151.368C84.2335 150.239 83.105 148.305 83.105 146.048C83.105 142.501 85.9262 139.68 89.4729 139.68C89.7953 139.68 90.1177 139.68 90.5207 139.761C92.2134 140.889 93.3419 142.824 93.3419 145.081Z" fill="#69768C"/>
<path opacity="0.5" d="M100.435 130.41C100.435 132.748 98.5812 134.602 96.2437 134.602C96.0018 134.602 95.76 134.602 95.5182 134.521C93.5031 134.199 91.9716 132.425 91.9716 130.33C91.9716 127.992 93.9061 126.138 96.163 126.138C97.1303 126.138 98.017 126.461 98.7424 127.025C99.7903 127.912 100.435 129.121 100.435 130.41Z" fill="#69768C"/>
<path opacity="0.4" d="M100.435 130.41C100.435 132.748 98.5812 134.602 96.2437 134.602C96.0019 134.602 95.7601 134.602 95.5182 134.521C94.551 133.715 93.9061 132.506 93.9061 131.216C93.9061 128.879 95.7601 127.025 98.0976 127.025C98.3394 127.025 98.5812 127.025 98.8231 127.106C99.7903 127.912 100.435 129.121 100.435 130.41Z" fill="#69768C"/>
<path opacity="0.1" d="M115.105 131.216C115.105 156.93 89.1505 174.663 65.2108 165.232C65.775 164.748 66.5004 164.426 67.1453 164.103C79.6391 157.977 91.1657 162.975 96.0826 154.27C98.3395 150.239 97.0499 145 99.1456 140.889C100.113 138.874 101.806 137.262 102.773 135.327C106.239 128.234 99.1456 112.919 100.516 108.647C101.08 106.954 102.773 105.906 104.546 105.584C111.075 112.194 115.105 121.221 115.105 131.216Z" fill="#69768C"/>
<path opacity="0.1" d="M91.3267 102.198C89.3115 107.277 80.9286 105.745 77.2207 105.826C69.7244 105.906 68.6766 109.695 67.1451 111.71C64.7269 114.854 60.2936 116.143 56.5858 114.854C59.81 130.33 53.1197 128.959 51.9107 133.876C50.5404 139.68 60.8579 143.227 58.9233 148.95C57.7949 152.254 52.9585 153.06 49.4119 153.302C31.2757 129.443 48.1222 94.6216 78.5104 94.6216C82.7019 94.6216 86.6516 95.347 90.3594 96.5561C91.4879 98.3294 92.0521 100.425 91.3267 102.198Z" fill="#5C6479"/>
<path opacity="0.3" d="M62.1477 118.319C63.5722 118.319 64.727 117.165 64.727 115.74C64.727 114.315 63.5722 113.161 62.1477 113.161C60.7231 113.161 59.5683 114.315 59.5683 115.74C59.5683 117.165 60.7231 118.319 62.1477 118.319Z" fill="#AAB2C5"/>
<defs>
<filter id="filter0_d_103_10591" x="125.025" y="59.9844" width="71.8095" height="259.156" filterUnits="userSpaceOnUse" color-interpolation-filters="sRGB">
<feFlood flood-opacity="0" result="BackgroundImageFix"/>
<feColorMatrix in="SourceAlpha" type="matrix" values="0 0 0 0 0 0 0 0 0 0 0 0 0 0 0 0 0 0 127 0" result="hardAlpha"/>
<feOffset dy="11"/>
<feGaussianBlur stdDeviation="11"/>
<feColorMatrix type="matrix" values="0 0 0 0 0 0 0 0 0 0 0 0 0 0 0 0 0 0 0.27 0"/>
<feBlend mode="normal" in2="BackgroundImageFix" result="effect1_dropShadow_103_10591"/>
<feBlend mode="normal" in="SourceGraphic" in2="effect1_dropShadow_103_10591" result="shape"/>
</filter>
<filter id="filter1_d_103_10591" x="218.285" y="59.9844" width="71.7308" height="259.156" filterUnits="userSpaceOnUse" color-interpolation-filters="sRGB">
<feFlood flood-opacity="0" result="BackgroundImageFix"/>
<feColorMatrix in="SourceAlpha" type="matrix" values="0 0 0 0 0 0 0 0 0 0 0 0 0 0 0 0 0 0 127 0" result="hardAlpha"/>
<feOffset dy="11"/>
<feGaussianBlur stdDeviation="11"/>
<feColorMatrix type="matrix" values="0 0 0 0 0 0 0 0 0 0 0 0 0 0 0 0 0 0 0.27 0"/>
<feBlend mode="normal" in2="BackgroundImageFix" result="effect1_dropShadow_103_10591"/>
<feBlend mode="normal" in="SourceGraphic" in2="effect1_dropShadow_103_10591" result="shape"/>
</filter>
<filter id="filter2_d_103_10591" x="106.89" y="112.881" width="123.799" height="198.521" filterUnits="userSpaceOnUse" color-interpolation-filters="sRGB">
<feFlood flood-opacity="0" result="BackgroundImageFix"/>
<feColorMatrix in="SourceAlpha" type="matrix" values="0 0 0 0 0 0 0 0 0 0 0 0 0 0 0 0 0 0 127 0" result="hardAlpha"/>
<feOffset dy="11"/>
<feGaussianBlur stdDeviation="11"/>
<feColorMatrix type="matrix" values="0 0 0 0 0 0 0 0 0 0 0 0 0 0 0 0 0 0 0.27 0"/>
<feBlend mode="normal" in2="BackgroundImageFix" result="effect1_dropShadow_103_10591"/>
<feBlend mode="normal" in="SourceGraphic" in2="effect1_dropShadow_103_10591" result="shape"/>
</filter>
<filter id="filter3_d_103_10591" x="186.93" y="112.881" width="123.799" height="198.44" filterUnits="userSpaceOnUse" color-interpolation-filters="sRGB">
<feFlood flood-opacity="0" result="BackgroundImageFix"/>
<feColorMatrix in="SourceAlpha" type="matrix" values="0 0 0 0 0 0 0 0 0 0 0 0 0 0 0 0 0 0 127 0" result="hardAlpha"/>
<feOffset dy="11"/>
<feGaussianBlur stdDeviation="11"/>
<feColorMatrix type="matrix" values="0 0 0 0 0 0 0 0 0 0 0 0 0 0 0 0 0 0 0.27 0"/>
<feBlend mode="normal" in2="BackgroundImageFix" result="effect1_dropShadow_103_10591"/>
<feBlend mode="normal" in="SourceGraphic" in2="effect1_dropShadow_103_10591" result="shape"/>
</filter>
<filter id="filter4_d_103_10591" x="167.262" y="69.1729" width="82.4487" height="239.246" filterUnits="userSpaceOnUse" color-interpolation-filters="sRGB">
<feFlood flood-opacity="0" result="BackgroundImageFix"/>
<feColorMatrix in="SourceAlpha" type="matrix" values="0 0 0 0 0 0 0 0 0 0 0 0 0 0 0 0 0 0 127 0" result="hardAlpha"/>
<feOffset dy="11"/>
<feGaussianBlur stdDeviation="11"/>
<feColorMatrix type="matrix" values="0 0 0 0 0 0 0 0 0 0 0 0 0 0 0 0 0 0 0.27 0"/>
<feBlend mode="normal" in2="BackgroundImageFix" result="effect1_dropShadow_103_10591"/>
<feBlend mode="normal" in="SourceGraphic" in2="effect1_dropShadow_103_10591" result="shape"/>
</filter>
<filter id="filter5_d_103_10591" x="161.459" y="231.209" width="69.3101" height="80.2725" filterUnits="userSpaceOnUse" color-interpolation-filters="sRGB">
<feFlood flood-opacity="0" result="BackgroundImageFix"/>
<feColorMatrix in="SourceAlpha" type="matrix" values="0 0 0 0 0 0 0 0 0 0 0 0 0 0 0 0 0 0 127 0" result="hardAlpha"/>
<feOffset dy="11"/>
<feGaussianBlur stdDeviation="11"/>
<feColorMatrix type="matrix" values="0 0 0 0 0 0 0 0 0 0 0 0 0 0 0 0 0 0 0.27 0"/>
<feBlend mode="normal" in2="BackgroundImageFix" result="effect1_dropShadow_103_10591"/>
<feBlend mode="normal" in="SourceGraphic" in2="effect1_dropShadow_103_10591" result="shape"/>
</filter>
<filter id="filter6_d_103_10591" x="186.527" y="231.209" width="69.3101" height="80.2725" filterUnits="userSpaceOnUse" color-interpolation-filters="sRGB">
<feFlood flood-opacity="0" result="BackgroundImageFix"/>
<feColorMatrix in="SourceAlpha" type="matrix" values="0 0 0 0 0 0 0 0 0 0 0 0 0 0 0 0 0 0 127 0" result="hardAlpha"/>
<feOffset dy="11"/>
<feGaussianBlur stdDeviation="11"/>
<feColorMatrix type="matrix" values="0 0 0 0 0 0 0 0 0 0 0 0 0 0 0 0 0 0 0.27 0"/>
<feBlend mode="normal" in2="BackgroundImageFix" result="effect1_dropShadow_103_10591"/>
<feBlend mode="normal" in="SourceGraphic" in2="effect1_dropShadow_103_10591" result="shape"/>
</filter>
<filter id="filter7_d_103_10591" x="165.973" y="267.321" width="85.9147" height="54.7207" filterUnits="userSpaceOnUse" color-interpolation-filters="sRGB">
<feFlood flood-opacity="0" result="BackgroundImageFix"/>
<feColorMatrix in="SourceAlpha" type="matrix" values="0 0 0 0 0 0 0 0 0 0 0 0 0 0 0 0 0 0 127 0" result="hardAlpha"/>
<feOffset dy="11"/>
<feGaussianBlur stdDeviation="11"/>
<feColorMatrix type="matrix" values="0 0 0 0 0 0 0 0 0 0 0 0 0 0 0 0 0 0 0.27 0"/>
<feBlend mode="normal" in2="BackgroundImageFix" result="effect1_dropShadow_103_10591"/>
<feBlend mode="normal" in="SourceGraphic" in2="effect1_dropShadow_103_10591" result="shape"/>
</filter>
<filter id="filter8_d_103_10591" x="183.867" y="222.343" width="49.2394" height="106.228" filterUnits="userSpaceOnUse" color-interpolation-filters="sRGB">
<feFlood flood-opacity="0" result="BackgroundImageFix"/>
<feColorMatrix in="SourceAlpha" type="matrix" values="0 0 0 0 0 0 0 0 0 0 0 0 0 0 0 0 0 0 127 0" result="hardAlpha"/>
<feOffset dy="11"/>
<feGaussianBlur stdDeviation="11"/>
<feColorMatrix type="matrix" values="0 0 0 0 0.397708 0 0 0 0 0.47749 0 0 0 0 0.575 0 0 0 0.27 0"/>
<feBlend mode="normal" in2="BackgroundImageFix" result="effect1_dropShadow_103_10591"/>
<feBlend mode="normal" in="SourceGraphic" in2="effect1_dropShadow_103_10591" result="shape"/>
</filter>
<filter id="filter9_d_103_10591" x="292.832" y="64.6724" width="73.5567" height="73.5566" filterUnits="userSpaceOnUse" color-interpolation-filters="sRGB">
<feFlood flood-opacity="0" result="BackgroundImageFix"/>
<feColorMatrix in="SourceAlpha" type="matrix" values="0 0 0 0 0 0 0 0 0 0 0 0 0 0 0 0 0 0 127 0" result="hardAlpha"/>
<feOffset dy="11"/>
<feGaussianBlur stdDeviation="6.5"/>
<feColorMatrix type="matrix" values="0 0 0 0 0 0 0 0 0 0 0 0 0 0 0 0 0 0 0.22 0"/>
<feBlend mode="normal" in2="BackgroundImageFix" result="effect1_dropShadow_103_10591"/>
<feBlend mode="normal" in="SourceGraphic" in2="effect1_dropShadow_103_10591" result="shape"/>
</filter>
<filter id="filter10_d_103_10591" x="260.732" y="39.3218" width="131.057" height="130.994" filterUnits="userSpaceOnUse" color-interpolation-filters="sRGB">
<feFlood flood-opacity="0" result="BackgroundImageFix"/>
<feColorMatrix in="SourceAlpha" type="matrix" values="0 0 0 0 0 0 0 0 0 0 0 0 0 0 0 0 0 0 127 0" result="hardAlpha"/>
<feOffset dy="11"/>
<feGaussianBlur stdDeviation="11"/>
<feColorMatrix type="matrix" values="0 0 0 0 0 0 0 0 0 0 0 0 0 0 0 0 0 0 0.27 0"/>
<feBlend mode="normal" in2="BackgroundImageFix" result="effect1_dropShadow_103_10591"/>
<feBlend mode="normal" in="SourceGraphic" in2="effect1_dropShadow_103_10591" result="shape"/>
</filter>
<filter id="filter11_d_103_10591" x="295.639" y="64.6094" width="70.7682" height="70.7783" filterUnits="userSpaceOnUse" color-interpolation-filters="sRGB">
<feFlood flood-opacity="0" result="BackgroundImageFix"/>
<feColorMatrix in="SourceAlpha" type="matrix" values="0 0 0 0 0 0 0 0 0 0 0 0 0 0 0 0 0 0 127 0" result="hardAlpha"/>
<feOffset dy="11"/>
<feGaussianBlur stdDeviation="6.5"/>
<feColorMatrix type="matrix" values="0 0 0 0 0 0 0 0 0 0 0 0 0 0 0 0 0 0 0.22 0"/>
<feBlend mode="normal" in2="BackgroundImageFix" result="effect1_dropShadow_103_10591"/>
<feBlend mode="normal" in="SourceGraphic" in2="effect1_dropShadow_103_10591" result="shape"/>
</filter>
<linearGradient id="paint0_linear_103_10591" x1="147" y1="174.5" x2="170.5" y2="175" gradientUnits="userSpaceOnUse">
<stop stop-color="#5D6271"/>
<stop offset="0.9964" stop-color="#383C49"/>
</linearGradient>
<linearGradient id="paint1_linear_103_10591" x1="178.74" y1="170.5" x2="160.74" y2="170" gradientUnits="userSpaceOnUse">
<stop stop-color="#191D28"/>
<stop offset="1" stop-color="#454957" stop-opacity="0"/>
</linearGradient>
<linearGradient id="paint2_linear_103_10591" x1="198" y1="79.0005" x2="240" y2="81.5005" gradientUnits="userSpaceOnUse">
<stop stop-color="#555C6D"/>
<stop offset="1" stop-color="#22262F"/>
</linearGradient>
<linearGradient id="paint3_linear_103_10591" x1="246" y1="146.001" x2="224" y2="146.001" gradientUnits="userSpaceOnUse">
<stop stop-color="#11151D"/>
<stop offset="1" stop-color="#3D465A" stop-opacity="0"/>
</linearGradient>
<linearGradient id="paint4_linear_103_10591" x1="225.5" y1="91.0006" x2="165.5" y2="69.5006" gradientUnits="userSpaceOnUse">
<stop stop-color="white"/>
<stop offset="1" stop-color="white" stop-opacity="0"/>
</linearGradient>
<linearGradient id="paint5_linear_103_10591" x1="240.26" y1="174.5" x2="263.694" y2="174.998" gradientUnits="userSpaceOnUse">
<stop stop-color="#5D6271"/>
<stop offset="0.9964" stop-color="#383C49"/>
</linearGradient>
<linearGradient id="paint6_linear_103_10591" x1="272" y1="170.5" x2="254" y2="170" gradientUnits="userSpaceOnUse">
<stop stop-color="#191D28"/>
<stop offset="1" stop-color="#454957" stop-opacity="0"/>
</linearGradient>
<linearGradient id="paint7_linear_103_10591" x1="191.5" y1="202.5" x2="184" y2="202.5" gradientUnits="userSpaceOnUse">
<stop stop-color="#373D4B" stop-opacity="0.27"/>
<stop offset="1" stop-color="#546181" stop-opacity="0"/>
</linearGradient>
<linearGradient id="paint8_linear_103_10591" x1="226" y1="209" x2="238" y2="209" gradientUnits="userSpaceOnUse">
<stop stop-color="#2E3544" stop-opacity="0.38"/>
<stop offset="1" stop-color="#82899B" stop-opacity="0"/>
</linearGradient>
<linearGradient id="paint9_linear_103_10591" x1="232.996" y1="170.491" x2="218.009" y2="170.13" gradientUnits="userSpaceOnUse">
<stop stop-color="#414857"/>
<stop offset="1" stop-color="#606778" stop-opacity="0"/>
</linearGradient>
<linearGradient id="paint10_linear_103_10591" x1="196.105" y1="241.37" x2="196.105" y2="278.873" gradientUnits="userSpaceOnUse">
<stop stop-color="#5C6479"/>
<stop offset="0.9964" stop-color="#5C6479"/>
</linearGradient>
<linearGradient id="paint11_linear_103_10591" x1="213.537" y1="260" x2="198.98" y2="260" gradientUnits="userSpaceOnUse">
<stop stop-color="#474E5F"/>
<stop offset="1" stop-color="#5C657A"/>
</linearGradient>
<linearGradient id="paint12_linear_103_10591" x1="221.174" y1="241.37" x2="221.174" y2="278.873" gradientUnits="userSpaceOnUse">
<stop stop-color="#5C6479"/>
<stop offset="0.9964" stop-color="#5C6479"/>
</linearGradient>
<linearGradient id="paint13_linear_103_10591" x1="238.5" y1="260" x2="224.5" y2="260" gradientUnits="userSpaceOnUse">
<stop stop-color="#474E5F"/>
<stop offset="1" stop-color="#5C657A"/>
</linearGradient>
<linearGradient id="paint14_linear_103_10591" x1="211" y1="267.5" x2="217.023" y2="267.333" gradientUnits="userSpaceOnUse">
<stop stop-color="#AAB2C5"/>
<stop offset="1" stop-color="#AAB2C5" stop-opacity="0"/>
</linearGradient>
<linearGradient id="paint15_linear_103_10591" x1="327.034" y1="58.1281" x2="327.034" y2="126.981" gradientUnits="userSpaceOnUse">
<stop stop-color="#5C6479"/>
<stop offset="0.9964" stop-color="#5C6479"/>
</linearGradient>
<linearGradient id="paint16_linear_103_10591" x1="78.5659" y1="97.1637" x2="78.5659" y2="138.237" gradientUnits="userSpaceOnUse">
<stop stop-color="#B0BACC"/>
<stop offset="1" stop-color="#969EAE"/>
</linearGradient>
</defs>
</svg>
