<svg width="88" height="88" viewBox="0 0 88 88" fill="none" xmlns="http://www.w3.org/2000/svg">
<g filter="url(#filter0_d_5_45)">
<path d="M24.119 11.6687L3.04004 55.3664H24.119L45.1979 11.6687C46.9275 7.97122 49.4678 9.53985 52.2243 11.6687C42.2793 -5.75432 27.6322 4.38019 24.119 11.6687Z" fill="#FBBE18"/>
</g>
<path d="M27.5177 51.507L35.733 73.3804L38.0448 74.3811C38.0448 74.3811 39.2687 75.5249 40.4925 74.953C41.7164 74.3811 41.9015 72.9489 42.8043 71.6647L46.068 64.6593L49.1957 57.7968L37.0367 31.7774L27.5177 51.507Z" fill="#EA4738"/>
<path d="M60.3464 35.368L52.1311 13.4946L49.8193 12.4938C49.8193 12.4938 48.5955 11.3501 47.3716 11.922C46.1477 12.4938 45.9626 13.9261 45.0598 15.2102L41.7961 22.2157L38.6685 29.0782L50.8274 55.0976L60.3464 35.368Z" fill="#2FA04A"/>
<g filter="url(#filter1_d_5_45)">
<path d="M63.881 74.3313L84.96 30.6336H63.881L42.8021 74.3313C41.0725 78.0288 38.5322 76.4602 35.7757 74.3313C45.7207 91.7543 60.3678 81.6198 63.881 74.3313Z" fill="#2E80EE"/>
</g>
<defs>
<filter id="filter0_d_5_45" x="0.309373" y="0.401609" width="54.6455" height="58.7877" filterUnits="userSpaceOnUse" color-interpolation-filters="sRGB">
<feFlood flood-opacity="0" result="BackgroundImageFix"/>
<feColorMatrix in="SourceAlpha" type="matrix" values="0 0 0 0 0 0 0 0 0 0 0 0 0 0 0 0 0 0 127 0" result="hardAlpha"/>
<feOffset dy="1.09227"/>
<feGaussianBlur stdDeviation="1.36533"/>
<feComposite in2="hardAlpha" operator="out"/>
<feColorMatrix type="matrix" values="0 0 0 0 0 0 0 0 0 0 0 0 0 0 0 0 0 0 0.25 0"/>
<feBlend mode="normal" in2="BackgroundImageFix" result="effect1_dropShadow_5_45"/>
<feBlend mode="normal" in="SourceGraphic" in2="effect1_dropShadow_5_45" result="shape"/>
</filter>
<filter id="filter1_d_5_45" x="33.0451" y="28.9952" width="54.6455" height="58.7877" filterUnits="userSpaceOnUse" color-interpolation-filters="sRGB">
<feFlood flood-opacity="0" result="BackgroundImageFix"/>
<feColorMatrix in="SourceAlpha" type="matrix" values="0 0 0 0 0 0 0 0 0 0 0 0 0 0 0 0 0 0 127 0" result="hardAlpha"/>
<feOffset dy="1.09227"/>
<feGaussianBlur stdDeviation="1.36533"/>
<feComposite in2="hardAlpha" operator="out"/>
<feColorMatrix type="matrix" values="0 0 0 0 0 0 0 0 0 0 0 0 0 0 0 0 0 0 0.25 0"/>
<feBlend mode="normal" in2="BackgroundImageFix" result="effect1_dropShadow_5_45"/>
<feBlend mode="normal" in="SourceGraphic" in2="effect1_dropShadow_5_45" result="shape"/>
</filter>
</defs>
</svg>
