<svg width="154" height="136" viewBox="0 0 154 136" fill="none" xmlns="http://www.w3.org/2000/svg">
<path d="M134.416 58.7265C134.416 71.9542 129.987 84.3837 122.605 94.1904C118.517 99.5499 113.633 104.225 107.955 107.874C98.8698 113.918 87.8539 117.339 76.1566 117.339C44.0174 117.453 17.8972 91.2256 17.8972 58.7265C17.8972 26.3414 43.9038 0 76.1566 0C87.8539 0 98.7562 3.42096 107.955 9.46466C113.633 13.1137 118.517 17.789 122.605 23.1485C129.987 33.0693 134.416 45.3847 134.416 58.7265Z" fill="#2A2E37"/>
<path d="M31.7881 50.8743H31.0847C30.5572 50.8743 30.2056 50.7102 30.2056 50.464C30.2056 50.2178 30.5572 50.0537 31.0847 50.0537H31.7881C32.3156 50.0537 32.6672 50.2178 32.6672 50.464C32.6672 50.7102 32.3156 50.8743 31.7881 50.8743Z" fill="#2D5887"/>
<path d="M31.7881 54.1565H31.0847C30.5572 54.1565 30.2056 53.9924 30.2056 53.7462C30.2056 53.5 30.5572 53.3359 31.0847 53.3359H31.7881C32.3156 53.3359 32.6672 53.5 32.6672 53.7462C32.6672 53.9924 32.3156 54.1565 31.7881 54.1565Z" fill="#2D5887"/>
<path d="M31.7881 57.4387H31.0847C30.5572 57.4387 30.2056 57.2746 30.2056 57.0284C30.2056 56.7823 30.5572 56.6182 31.0847 56.6182H31.7881C32.3156 56.6182 32.6672 56.7823 32.6672 57.0284C32.6672 57.2746 32.3156 57.4387 31.7881 57.4387Z" fill="#2D5887"/>
<path d="M31.7881 60.7209H31.0847C30.5572 60.7209 30.2056 60.5568 30.2056 60.3107C30.2056 60.0645 30.5572 59.9004 31.0847 59.9004H31.7881C32.3156 59.9004 32.6672 60.0645 32.6672 60.3107C32.6672 60.5568 32.3156 60.7209 31.7881 60.7209Z" fill="#2D5887"/>
<path d="M63.8874 50.8743H52.3215C51.8526 50.8743 51.54 50.7102 51.54 50.464C51.54 50.2178 51.8526 50.0537 52.3215 50.0537H63.8874C64.3563 50.0537 64.6689 50.2178 64.6689 50.464C64.6689 50.7102 64.3563 50.8743 63.8874 50.8743Z" fill="white"/>
<path d="M88.5306 60.7209H52.2949C51.842 60.7209 51.54 60.5568 51.54 60.3107C51.54 60.0645 51.842 59.9004 52.2949 59.9004H88.5306C88.9836 59.9004 89.2856 60.0645 89.2856 60.3107C89.2856 60.5568 88.9836 60.7209 88.5306 60.7209Z" fill="url(#paint0_linear_577_250)"/>
<path d="M63.9325 54.1565H48.1737C47.7318 54.1565 47.4373 53.9924 47.4373 53.7462C47.4373 53.5 47.7318 53.3359 48.1737 53.3359H63.9325C64.3743 53.3359 64.6689 53.5 64.6689 53.7462C64.6689 53.9924 64.3743 54.1565 63.9325 54.1565Z" fill="#2D5887"/>
<path d="M76.2424 57.4387H48.1721C47.7312 57.4387 47.4373 57.2746 47.4373 57.0284C47.4373 56.7823 47.7312 56.6182 48.1721 56.6182H76.2424C76.6833 56.6182 76.9772 56.7823 76.9772 57.0284C76.8303 57.2746 76.5363 57.4387 76.2424 57.4387Z" fill="#2D5887"/>
<path d="M88.4861 57.4387H77.7763C77.2967 57.4387 76.9771 57.2746 76.9771 57.0284C76.9771 56.7823 77.2967 56.6182 77.7763 56.6182H88.4861C88.9657 56.6182 89.2854 56.7823 89.2854 57.0284C89.2854 57.2746 88.9657 57.4387 88.4861 57.4387Z" fill="white"/>
<path d="M95.0736 57.4387H90.8822C90.4164 57.4387 90.106 57.2746 90.106 57.0284C90.106 56.7823 90.4164 56.6182 90.8822 56.6182H95.0736C95.5394 56.6182 95.8498 56.7823 95.8498 57.0284C95.8498 57.2746 95.5394 57.4387 95.0736 57.4387Z" fill="url(#paint1_linear_577_250)"/>
<path d="M4.76831 102.569H142.621" stroke="#2B323C" stroke-width="2" stroke-miterlimit="10" stroke-linecap="round" stroke-linejoin="round"/>
<g filter="url(#filter0_d_577_250)">
<path d="M101.594 50.0537V102.569H27.1398C24.2028 102.569 22 100.209 22 97.4062V50.0537H101.594Z" fill="#5C6479"/>
</g>
<path d="M131.134 50.0537V97.4062C131.134 100.356 128.685 102.569 125.777 102.569H101.594V50.0537H131.134Z" fill="#DAE1ED"/>
<g filter="url(#filter1_d_577_250)">
<path d="M131.134 50.0537V97.4062C131.134 100.356 128.685 102.569 125.777 102.569H101.594V50.0537H131.134Z" fill="#474E61"/>
</g>
<path d="M50.7195 50.0537L66.3757 25.437H146.724L130.625 50.0537H50.7195Z" fill="#C5CDDB"/>
<path d="M50.7195 50.0537L66.3757 25.437H146.724L130.625 50.0537H50.7195Z" fill="#5A6177"/>
<path opacity="0.3" d="M131.134 50.1975V77.9526H109.594C107.594 77.9526 106.209 76.6583 105.902 74.7888L101.594 50.0537L131.134 50.1975Z" fill="url(#paint2_linear_577_250)"/>
<path d="M130.515 50.0537H101.594L116.279 72.3119C117.328 73.7859 118.976 74.6704 120.625 74.6704H143.102C144.601 74.6704 145.65 72.9015 144.75 71.7223L130.515 50.0537Z" fill="#6F778B"/>
<path d="M101.594 50.0537L85.828 25.437H4.76831L21.129 50.0537H101.594Z" fill="#474E61"/>
<path d="M61.7226 80.4143H30.6901C29.9651 80.4143 29.385 79.8673 29.385 79.1835C29.385 78.4997 29.9651 77.9526 30.6901 77.9526H61.7226C62.4477 77.9526 63.0278 78.4997 63.0278 79.1835C62.8827 79.8673 62.4477 80.4143 61.7226 80.4143Z" fill="#42495B"/>
<path d="M61.7226 86.1582H30.6901C29.9651 86.1582 29.385 85.7935 29.385 85.3376C29.385 84.8818 29.9651 84.5171 30.6901 84.5171H61.7226C62.4477 84.5171 63.0278 84.8818 63.0278 85.3376C62.8827 85.7935 62.4477 86.1582 61.7226 86.1582Z" fill="#42495B"/>
<path d="M45.2911 92.7227H30.7105C29.9741 92.7227 29.385 92.358 29.385 91.9021C29.385 91.4462 29.9741 91.0815 30.7105 91.0815H45.2911C46.0275 91.0815 46.6167 91.4462 46.6167 91.9021C46.4694 92.358 45.8803 92.7227 45.2911 92.7227Z" fill="#42495B"/>
<defs>
<filter id="filter0_d_577_250" x="0" y="39.0537" width="123.594" height="96.5156" filterUnits="userSpaceOnUse" color-interpolation-filters="sRGB">
<feFlood flood-opacity="0" result="BackgroundImageFix"/>
<feColorMatrix in="SourceAlpha" type="matrix" values="0 0 0 0 0 0 0 0 0 0 0 0 0 0 0 0 0 0 127 0" result="hardAlpha"/>
<feOffset dy="11"/>
<feGaussianBlur stdDeviation="11"/>
<feColorMatrix type="matrix" values="0 0 0 0 0 0 0 0 0 0 0 0 0 0 0 0 0 0 0.27 0"/>
<feBlend mode="normal" in2="BackgroundImageFix" result="effect1_dropShadow_577_250"/>
<feBlend mode="normal" in="SourceGraphic" in2="effect1_dropShadow_577_250" result="shape"/>
</filter>
<filter id="filter1_d_577_250" x="79.5938" y="39.0537" width="73.54" height="96.5156" filterUnits="userSpaceOnUse" color-interpolation-filters="sRGB">
<feFlood flood-opacity="0" result="BackgroundImageFix"/>
<feColorMatrix in="SourceAlpha" type="matrix" values="0 0 0 0 0 0 0 0 0 0 0 0 0 0 0 0 0 0 127 0" result="hardAlpha"/>
<feOffset dy="11"/>
<feGaussianBlur stdDeviation="11"/>
<feColorMatrix type="matrix" values="0 0 0 0 0 0 0 0 0 0 0 0 0 0 0 0 0 0 0.27 0"/>
<feBlend mode="normal" in2="BackgroundImageFix" result="effect1_dropShadow_577_250"/>
<feBlend mode="normal" in="SourceGraphic" in2="effect1_dropShadow_577_250" result="shape"/>
</filter>
<linearGradient id="paint0_linear_577_250" x1="51.7096" y1="60.3273" x2="89.3293" y2="60.3273" gradientUnits="userSpaceOnUse">
<stop stop-color="#FF66A9"/>
<stop offset="1" stop-color="#F53689"/>
</linearGradient>
<linearGradient id="paint1_linear_577_250" x1="90.1443" y1="57.0033" x2="95.8488" y2="57.0033" gradientUnits="userSpaceOnUse">
<stop stop-color="#83A6FF"/>
<stop offset="1" stop-color="#5A78FF"/>
</linearGradient>
<linearGradient id="paint2_linear_577_250" x1="116.371" y1="78.5252" x2="116.371" y2="53.1127" gradientUnits="userSpaceOnUse">
<stop offset="0.00289017" stop-color="#484F62"/>
<stop offset="1" stop-color="#15171C"/>
</linearGradient>
</defs>
</svg>
