<svg width="157" height="127" viewBox="0 0 157 127" fill="none" xmlns="http://www.w3.org/2000/svg">
<path d="M122.698 23.5787H19.028C16.7472 23.5787 14.7429 25.583 14.7429 27.8637V99.189C14.7429 101.47 16.7472 100.64 19.028 100.64H122.422C124.703 100.64 126.707 101.47 126.707 99.189V27.8637C126.983 25.583 124.979 23.5787 122.698 23.5787Z" fill="#D5DDEA"/>
<path d="M140.046 96.6318V98.9126C140.046 101.47 137.765 103.751 135.208 103.751H6.58747C4.03026 103.751 1.74951 101.47 1.74951 98.9126V96.6318H140.046Z" fill="#D5DDEA"/>
<path d="M84.133 96.6318V97.4612C84.133 98.9126 83.0272 100.295 81.2993 100.295H60.2196C58.7683 100.295 57.386 99.189 57.386 97.4612V96.6318H84.133Z" fill="#E9EFF8"/>
<g filter="url(#filter0_d_567_20642)">
<path d="M114.612 32.9091V89.444C114.474 91.7939 112.608 93.7291 110.189 93.7291H26.4233C23.9352 93.7291 22 91.7939 22 89.444V32.9091C22 30.5592 23.9352 28.624 26.4233 28.624H110.258C112.746 28.624 114.612 30.5592 114.612 32.9091Z" fill="url(#paint0_linear_567_20642)"/>
</g>
<path d="M27.0454 35.1206C27.8748 35.1206 28.5659 34.4295 28.5659 33.6001C28.5659 32.7707 27.8748 32.0796 27.0454 32.0796C26.216 32.0796 25.5249 32.7707 25.5249 33.6001C25.5249 34.4295 26.216 35.1206 27.0454 35.1206Z" fill="#D6DCE8"/>
<path d="M31.5376 35.1206C32.367 35.1206 33.0581 34.4295 33.0581 33.6001C33.0581 32.7707 32.367 32.0796 31.5376 32.0796C30.7082 32.0796 30.0171 32.7707 30.0171 33.6001C30.0171 34.4295 30.7082 35.1206 31.5376 35.1206Z" fill="#D6DCE8"/>
<path d="M36.1685 35.1206C36.9978 35.1206 37.689 34.4295 37.689 33.6001C37.689 32.7707 36.9978 32.0796 36.1685 32.0796C35.3391 32.0796 34.6479 32.7707 34.6479 33.6001C34.6479 34.4295 35.3391 35.1206 36.1685 35.1206Z" fill="#F1F3F9"/>
<g filter="url(#filter1_d_567_20642)">
<path d="M124.15 23.4406V79.9755C124.15 80.0446 124.15 80.1829 124.15 80.252C123.943 82.5327 122.076 84.2606 119.796 84.2606H35.9609C33.4728 84.2606 31.5376 82.3254 31.5376 79.9755V23.4406C31.5376 21.0907 33.4728 19.1555 35.9609 19.1555H119.796C122.284 19.1555 124.15 21.0216 124.15 23.4406Z" fill="url(#paint1_linear_567_20642)"/>
</g>
<path d="M36.583 25.6521C37.4124 25.6521 38.1035 24.9609 38.1035 24.1316C38.1035 23.3022 37.4124 22.6111 36.583 22.6111C35.7536 22.6111 35.0625 23.3022 35.0625 24.1316C35.0625 24.9609 35.7536 25.6521 36.583 25.6521Z" fill="#D6DCE8"/>
<path d="M41.0754 25.6521C41.9048 25.6521 42.5959 24.9609 42.5959 24.1316C42.5959 23.3022 41.9048 22.6111 41.0754 22.6111C40.2461 22.6111 39.5549 23.3022 39.5549 24.1316C39.5549 24.9609 40.2461 25.6521 41.0754 25.6521Z" fill="#D6DCE8"/>
<path d="M45.706 25.6521C46.5354 25.6521 47.2265 24.9609 47.2265 24.1316C47.2265 23.3022 46.5354 22.6111 45.706 22.6111C44.8767 22.6111 44.1855 23.3022 44.1855 24.1316C44.1855 24.9609 44.8767 25.6521 45.706 25.6521Z" fill="#F1F3F9"/>
<g filter="url(#filter2_d_567_20642)">
<path d="M133.964 71.82C133.826 74.1699 131.96 76.1051 129.541 76.1051H45.7748C43.2867 76.1051 41.3516 74.1699 41.3516 71.82V15.285C41.3516 12.9352 43.2867 11 45.7748 11H129.61C132.098 11 134.033 12.9352 134.033 15.285V71.82H133.964Z" fill="url(#paint2_linear_567_20642)"/>
</g>
<path d="M46.397 17.5657C47.2263 17.5657 47.9175 16.8745 47.9175 16.0452C47.9175 15.2158 47.2263 14.4556 46.397 14.4556C45.5676 14.4556 44.8765 15.1467 44.8765 15.9761C44.8765 16.8054 45.5676 17.5657 46.397 17.5657Z" fill="#AAB2C5"/>
<path d="M50.8892 17.5657C51.7185 17.5657 52.4097 16.8745 52.4097 16.0452C52.4097 15.2158 51.7185 14.4556 50.8892 14.4556C50.0598 14.4556 49.3687 15.1467 49.3687 15.9761C49.3687 16.8054 50.0598 17.5657 50.8892 17.5657Z" fill="#AAB2C5"/>
<path d="M55.5198 17.5657C56.3491 17.5657 57.0403 16.8745 57.0403 16.0452C57.0403 15.2158 56.3491 14.4556 55.5198 14.4556C54.6904 14.4556 53.9993 15.1467 53.9993 15.9761C53.9993 16.8054 54.6213 17.5657 55.5198 17.5657Z" fill="#AAB2C5"/>
<path d="M78.5344 33.4783C80.2048 33.4783 81.5596 34.8323 81.5598 36.5027C81.5598 38.1732 80.205 39.5281 78.5344 39.5281C76.8641 39.5279 75.51 38.1731 75.51 36.5027C75.5102 34.8324 76.8642 33.4785 78.5344 33.4783Z" fill="#AAB2C5" stroke="white"/>
<path d="M95.3982 33.4783C97.0686 33.4783 98.4234 34.8323 98.4236 36.5027C98.4236 38.1732 97.0687 39.5281 95.3982 39.5281C93.7278 39.5279 92.3738 38.1731 92.3738 36.5027C92.374 34.8324 93.7279 33.4785 95.3982 33.4783Z" fill="#AAB2C5" stroke="white"/>
<path d="M94.3617 54.6107H79.5714C77.2215 54.6107 75.9083 51.9844 77.2906 50.0492C78.3273 48.5978 79.6405 47.4229 81.161 46.5244C82.8888 45.5568 84.8931 45.0039 86.9665 45.0039C89.4546 45.0039 91.7354 45.7642 93.6705 47.0773C94.8455 47.9067 95.8822 48.8743 96.7115 50.0492C98.0247 51.9844 96.7115 54.6107 94.3617 54.6107Z" fill="#D6DCE8" stroke="#D6DCE8" stroke-width="1.7035" stroke-miterlimit="10"/>
<path d="M92.1498 54.6107H81.8519C81.7828 54.4724 81.7828 54.3342 81.8519 54.196C82.6121 52.0535 84.6164 50.533 87.0354 50.533C89.4544 50.533 91.4587 52.0535 92.2189 54.196C92.2189 54.3342 92.2189 54.4724 92.1498 54.6107Z" fill="#AAB2C5"/>
<path d="M93.6704 47.7685V48.3214C93.6704 48.7361 93.3249 49.0125 92.9793 49.0125H81.9211C81.5064 49.0125 81.23 48.667 81.23 48.3214V47.2156C82.9578 46.248 84.9621 45.6951 87.0355 45.6951C89.4545 45.6951 91.7353 46.4553 93.6704 47.7685Z" fill="white"/>
<path d="M61.1873 35.4621C61.1873 36.8467 60.1122 37.9543 58.7683 37.9543C57.4245 37.9543 56.3494 36.8467 56.3494 35.4621C56.3494 34.4098 57.8008 31.253 58.4458 29.8684C58.5533 29.5915 58.9296 29.5915 59.0909 29.8684C59.7359 31.1976 61.1873 34.3544 61.1873 35.4621Z" fill="#D6DCE8"/>
<path d="M146.957 22.542C148.063 23.5787 148.201 25.3066 147.165 26.4815C146.128 27.5873 144.4 27.7256 143.225 26.6889C142.327 25.9286 140.806 22.3347 140.184 20.7451C140.046 20.4686 140.323 20.1231 140.668 20.1922C142.327 20.6069 146.059 21.7127 146.957 22.542Z" fill="#D6DCE8"/>
<path d="M146.543 34.7751C147.372 36.0883 147.026 37.747 145.713 38.5763C144.4 39.4057 142.741 39.0601 141.912 37.747C141.29 36.7794 140.737 32.909 140.53 31.1812C140.461 30.8356 140.875 30.6283 141.152 30.7665C142.603 31.665 145.92 33.7384 146.543 34.7751Z" fill="#D6DCE8"/>
<path d="M55.658 41.6823C55.658 43.0669 54.5829 44.1746 53.239 44.1746C51.8952 44.1746 50.8201 43.0669 50.8201 41.6823C50.8201 40.63 52.2715 37.4732 52.9165 36.0886C53.024 35.8117 53.4003 35.8117 53.5616 36.0886C54.2066 37.4732 55.658 40.63 55.658 41.6823Z" fill="#D6DCE8"/>
<path d="M122.698 54.6107H137.351C138.249 54.6107 139.078 54.9563 139.7 55.5783L150.067 65.9454C150.689 66.5674 151.035 67.3967 151.035 68.2952V82.8782C151.035 83.7767 150.689 84.606 150.067 85.2281L139.839 95.4569C139.217 96.0789 138.387 96.4245 137.489 96.4245H122.698C121.8 96.4245 120.971 96.0789 120.349 95.4569L109.843 84.9516C109.221 84.3296 108.876 83.5002 108.876 82.6017V68.2952C108.876 67.3967 109.221 66.5674 109.843 65.9454L120.279 55.5783C120.971 54.9563 121.8 54.6107 122.698 54.6107Z" fill="url(#paint3_linear_567_20642)"/>
<path d="M132.443 62.9337V69.8695C132.443 70.3319 132.443 70.7943 132.374 71.3227L131.614 76.2769C131.545 76.6732 131.199 77.0035 130.716 77.0035H129.195C128.78 77.0035 128.366 76.6732 128.297 76.2769L127.536 71.3227C127.467 70.8603 127.467 70.3979 127.467 69.8695V62.9337C127.467 62.4713 127.882 62.075 128.366 62.075H131.614C132.029 62.141 132.443 62.4713 132.443 62.9337Z" fill="white"/>
<path d="M131.614 87.4397H128.228C127.675 87.4397 127.191 86.9559 127.191 86.403V83.0164C127.191 82.4635 127.675 81.9797 128.228 81.9797H131.614C132.167 81.9797 132.651 82.4635 132.651 83.0164V86.403C132.651 86.9559 132.167 87.4397 131.614 87.4397Z" fill="white"/>
<defs>
<filter id="filter0_d_567_20642" x="0" y="17.624" width="136.612" height="109.105" filterUnits="userSpaceOnUse" color-interpolation-filters="sRGB">
<feFlood flood-opacity="0" result="BackgroundImageFix"/>
<feColorMatrix in="SourceAlpha" type="matrix" values="0 0 0 0 0 0 0 0 0 0 0 0 0 0 0 0 0 0 127 0" result="hardAlpha"/>
<feOffset dy="11"/>
<feGaussianBlur stdDeviation="11"/>
<feColorMatrix type="matrix" values="0 0 0 0 0.397708 0 0 0 0 0.47749 0 0 0 0 0.575 0 0 0 0.27 0"/>
<feBlend mode="normal" in2="BackgroundImageFix" result="effect1_dropShadow_567_20642"/>
<feBlend mode="normal" in="SourceGraphic" in2="effect1_dropShadow_567_20642" result="shape"/>
</filter>
<filter id="filter1_d_567_20642" x="9.5376" y="8.15552" width="136.612" height="109.105" filterUnits="userSpaceOnUse" color-interpolation-filters="sRGB">
<feFlood flood-opacity="0" result="BackgroundImageFix"/>
<feColorMatrix in="SourceAlpha" type="matrix" values="0 0 0 0 0 0 0 0 0 0 0 0 0 0 0 0 0 0 127 0" result="hardAlpha"/>
<feOffset dy="11"/>
<feGaussianBlur stdDeviation="11"/>
<feColorMatrix type="matrix" values="0 0 0 0 0.397708 0 0 0 0 0.47749 0 0 0 0 0.575 0 0 0 0.27 0"/>
<feBlend mode="normal" in2="BackgroundImageFix" result="effect1_dropShadow_567_20642"/>
<feBlend mode="normal" in="SourceGraphic" in2="effect1_dropShadow_567_20642" result="shape"/>
</filter>
<filter id="filter2_d_567_20642" x="19.3516" y="0" width="136.681" height="109.105" filterUnits="userSpaceOnUse" color-interpolation-filters="sRGB">
<feFlood flood-opacity="0" result="BackgroundImageFix"/>
<feColorMatrix in="SourceAlpha" type="matrix" values="0 0 0 0 0 0 0 0 0 0 0 0 0 0 0 0 0 0 127 0" result="hardAlpha"/>
<feOffset dy="11"/>
<feGaussianBlur stdDeviation="11"/>
<feColorMatrix type="matrix" values="0 0 0 0 0.397708 0 0 0 0 0.47749 0 0 0 0 0.575 0 0 0 0.27 0"/>
<feBlend mode="normal" in2="BackgroundImageFix" result="effect1_dropShadow_567_20642"/>
<feBlend mode="normal" in="SourceGraphic" in2="effect1_dropShadow_567_20642" result="shape"/>
</filter>
<linearGradient id="paint0_linear_567_20642" x1="68.276" y1="27.1181" x2="68.276" y2="94.431" gradientUnits="userSpaceOnUse">
<stop stop-color="#FDFEFF"/>
<stop offset="0.9964" stop-color="#ECF0F5"/>
</linearGradient>
<linearGradient id="paint1_linear_567_20642" x1="77.8136" y1="17.6496" x2="77.8136" y2="84.9624" gradientUnits="userSpaceOnUse">
<stop stop-color="#FDFEFF"/>
<stop offset="0.9964" stop-color="#ECF0F5"/>
</linearGradient>
<linearGradient id="paint2_linear_567_20642" x1="87.6621" y1="9.49406" x2="87.6621" y2="76.8069" gradientUnits="userSpaceOnUse">
<stop stop-color="#FDFEFF"/>
<stop offset="0.9964" stop-color="#ECF0F5"/>
</linearGradient>
<linearGradient id="paint3_linear_567_20642" x1="108.856" y1="75.5221" x2="151.043" y2="75.5221" gradientUnits="userSpaceOnUse">
<stop stop-color="#B0BACC"/>
<stop offset="1" stop-color="#969EAE"/>
</linearGradient>
</defs>
</svg>
