<svg width="157" height="127" viewBox="0 0 157 127" fill="none" xmlns="http://www.w3.org/2000/svg">
<path d="M122.698 23.5786H19.028C16.7472 23.5786 14.7429 25.5829 14.7429 27.8637V99.1889C14.7429 101.47 16.7472 100.64 19.028 100.64H122.422C124.703 100.64 126.707 101.47 126.707 99.1889V27.8637C126.983 25.5829 124.979 23.5786 122.698 23.5786Z" fill="#3E4350"/>
<path d="M140.046 96.6318V98.9126C140.046 101.47 137.765 103.751 135.208 103.751H6.58747C4.03026 103.751 1.74951 101.47 1.74951 98.9126V96.6318H140.046Z" fill="#474E61"/>
<path d="M84.133 96.6318V97.4612C84.133 98.9126 83.0272 100.295 81.2993 100.295H60.2196C58.7683 100.295 57.386 99.189 57.386 97.4612V96.6318H84.133Z" fill="#353A45"/>
<g filter="url(#filter0_d_577_1290)">
<path d="M114.612 32.9091V89.444C114.474 91.7939 112.608 93.7291 110.189 93.7291H26.4233C23.9352 93.7291 22 91.7939 22 89.444V32.9091C22 30.5592 23.9352 28.624 26.4233 28.624H110.258C112.746 28.624 114.612 30.5592 114.612 32.9091Z" fill="#5C6479"/>
</g>
<path d="M27.0454 35.1206C27.8748 35.1206 28.5659 34.4295 28.5659 33.6001C28.5659 32.7707 27.8748 32.0796 27.0454 32.0796C26.216 32.0796 25.5249 32.7707 25.5249 33.6001C25.5249 34.4295 26.216 35.1206 27.0454 35.1206Z" fill="#474E61"/>
<path d="M31.5376 35.1206C32.367 35.1206 33.0581 34.4295 33.0581 33.6001C33.0581 32.7707 32.367 32.0796 31.5376 32.0796C30.7082 32.0796 30.0171 32.7707 30.0171 33.6001C30.0171 34.4295 30.7082 35.1206 31.5376 35.1206Z" fill="#474E61"/>
<path d="M36.1685 35.1206C36.9978 35.1206 37.689 34.4295 37.689 33.6001C37.689 32.7707 36.9978 32.0796 36.1685 32.0796C35.3391 32.0796 34.6479 32.7707 34.6479 33.6001C34.6479 34.4295 35.3391 35.1206 36.1685 35.1206Z" fill="#F1F3F9"/>
<g filter="url(#filter1_d_577_1290)">
<path d="M124.15 23.4403V79.9753C124.15 80.0444 124.15 80.1826 124.15 80.2517C123.943 82.5325 122.076 84.2603 119.796 84.2603H35.9609C33.4728 84.2603 31.5376 82.3251 31.5376 79.9753V23.4403C31.5376 21.0905 33.4728 19.1553 35.9609 19.1553H119.796C122.284 19.1553 124.15 21.0213 124.15 23.4403Z" fill="#5C6479"/>
</g>
<path d="M36.583 25.6518C37.4124 25.6518 38.1035 24.9607 38.1035 24.1313C38.1035 23.302 37.4124 22.6108 36.583 22.6108C35.7536 22.6108 35.0625 23.302 35.0625 24.1313C35.0625 24.9607 35.7536 25.6518 36.583 25.6518Z" fill="#474E61"/>
<path d="M41.0754 25.6518C41.9048 25.6518 42.5959 24.9607 42.5959 24.1313C42.5959 23.302 41.9048 22.6108 41.0754 22.6108C40.2461 22.6108 39.5549 23.302 39.5549 24.1313C39.5549 24.9607 40.2461 25.6518 41.0754 25.6518Z" fill="#474E61"/>
<path d="M45.706 25.6518C46.5354 25.6518 47.2265 24.9607 47.2265 24.1313C47.2265 23.302 46.5354 22.6108 45.706 22.6108C44.8767 22.6108 44.1855 23.302 44.1855 24.1313C44.1855 24.9607 44.8767 25.6518 45.706 25.6518Z" fill="#F1F3F9"/>
<g filter="url(#filter2_d_577_1290)">
<path d="M133.964 71.82C133.826 74.1699 131.96 76.1051 129.541 76.1051H45.7748C43.2867 76.1051 41.3516 74.1699 41.3516 71.82V15.285C41.3516 12.9352 43.2867 11 45.7748 11H129.61C132.098 11 134.033 12.9352 134.033 15.285V71.82H133.964Z" fill="#5C6479"/>
</g>
<path d="M46.397 17.5657C47.2263 17.5657 47.9175 16.8745 47.9175 16.0452C47.9175 15.2158 47.2263 14.4556 46.397 14.4556C45.5676 14.4556 44.8765 15.1467 44.8765 15.9761C44.8765 16.8054 45.5676 17.5657 46.397 17.5657Z" fill="#AAB2C5"/>
<path d="M50.8892 17.5657C51.7185 17.5657 52.4097 16.8745 52.4097 16.0452C52.4097 15.2158 51.7185 14.4556 50.8892 14.4556C50.0598 14.4556 49.3687 15.1467 49.3687 15.9761C49.3687 16.8054 50.0598 17.5657 50.8892 17.5657Z" fill="#AAB2C5"/>
<path d="M55.5198 17.5657C56.3491 17.5657 57.0403 16.8745 57.0403 16.0452C57.0403 15.2158 56.3491 14.4556 55.5198 14.4556C54.6904 14.4556 53.9993 15.1467 53.9993 15.9761C53.9993 16.8054 54.6213 17.5657 55.5198 17.5657Z" fill="#AAB2C5"/>
<path d="M78.5348 40.0281C80.4815 40.0281 82.0596 38.45 82.0596 36.5033C82.0596 34.5566 80.4815 32.9785 78.5348 32.9785C76.5881 32.9785 75.01 34.5566 75.01 36.5033C75.01 38.45 76.5881 40.0281 78.5348 40.0281Z" fill="#AAB2C5"/>
<path d="M95.3986 40.0281C97.3453 40.0281 98.9234 38.45 98.9234 36.5033C98.9234 34.5566 97.3453 32.9785 95.3986 32.9785C93.4519 32.9785 91.8738 34.5566 91.8738 36.5033C91.8738 38.45 93.4519 40.0281 95.3986 40.0281Z" fill="#AAB2C5"/>
<path d="M94.3617 54.6107H79.5714C77.2215 54.6107 75.9083 51.9844 77.2906 50.0492C78.3273 48.5978 79.6405 47.4229 81.161 46.5244C82.8888 45.5568 84.8931 45.0039 86.9665 45.0039C89.4546 45.0039 91.7354 45.7642 93.6705 47.0773C94.8455 47.9067 95.8822 48.8743 96.7115 50.0492C98.0247 51.9844 96.7115 54.6107 94.3617 54.6107Z" fill="#474E61" stroke="#474E61" stroke-width="1.7035" stroke-miterlimit="10"/>
<path d="M92.1498 54.6109H81.8519C81.7828 54.4727 81.7828 54.3345 81.8519 54.1962C82.6121 52.0537 84.6164 50.5332 87.0354 50.5332C89.4544 50.5332 91.4587 52.0537 92.2189 54.1962C92.2189 54.3345 92.2189 54.4727 92.1498 54.6109Z" fill="#AAB2C5"/>
<path d="M93.6704 47.7687V48.3216C93.6704 48.7363 93.3249 49.0128 92.9793 49.0128H81.9211C81.5064 49.0128 81.23 48.6672 81.23 48.3216V47.2158C82.9578 46.2482 84.9621 45.6953 87.0355 45.6953C89.4545 45.6953 91.7353 46.4556 93.6704 47.7687Z" fill="white"/>
<path d="M61.1873 35.462C61.1873 36.8466 60.1122 37.9543 58.7683 37.9543C57.4245 37.9543 56.3494 36.8466 56.3494 35.462C56.3494 34.4098 57.8008 31.2529 58.4458 29.8683C58.5533 29.5914 58.9296 29.5914 59.0909 29.8683C59.7359 31.1975 61.1873 34.3544 61.1873 35.462Z" fill="#474E61"/>
<path d="M146.957 22.5419C148.063 23.5786 148.201 25.3065 147.165 26.4814C146.128 27.5872 144.4 27.7254 143.225 26.6887C142.327 25.9285 140.806 22.3346 140.184 20.745C140.046 20.4685 140.323 20.1229 140.668 20.192C142.327 20.6067 146.059 21.7125 146.957 22.5419Z" fill="#474E61"/>
<path d="M146.543 34.775C147.372 36.0882 147.026 37.7469 145.713 38.5763C144.4 39.4056 142.741 39.0601 141.912 37.7469C141.29 36.7793 140.737 32.909 140.53 31.1811C140.461 30.8356 140.875 30.6282 141.152 30.7664C142.603 31.6649 145.92 33.7383 146.543 34.775Z" fill="#474E61"/>
<path d="M55.658 41.6823C55.658 43.0668 54.5829 44.1745 53.239 44.1745C51.8952 44.1745 50.8201 43.0668 50.8201 41.6823C50.8201 40.63 52.2715 37.4731 52.9165 36.0885C53.024 35.8116 53.4003 35.8116 53.5616 36.0885C54.2066 37.4731 55.658 40.63 55.658 41.6823Z" fill="#474E61"/>
<g filter="url(#filter3_d_577_1290)">
<path d="M122.698 54.6108H137.351C138.249 54.6108 139.078 54.9564 139.7 55.5784L150.067 65.9455C150.689 66.5675 151.035 67.3969 151.035 68.2953V82.8783C151.035 83.7768 150.689 84.6062 150.067 85.2282L139.839 95.457C139.217 96.079 138.387 96.4246 137.489 96.4246H122.698C121.8 96.4246 120.971 96.079 120.349 95.457L109.843 84.9517C109.221 84.3297 108.876 83.5003 108.876 82.6019V68.2953C108.876 67.3969 109.221 66.5675 109.843 65.9455L120.279 55.5784C120.971 54.9564 121.8 54.6108 122.698 54.6108Z" fill="url(#paint0_linear_577_1290)"/>
</g>
<path d="M132.443 62.9339V69.8697C132.443 70.3321 132.443 70.7945 132.374 71.323L131.614 76.2771C131.545 76.6735 131.199 77.0037 130.716 77.0037H129.195C128.78 77.0037 128.366 76.6735 128.297 76.2771L127.536 71.323C127.467 70.8606 127.467 70.3982 127.467 69.8697V62.9339C127.467 62.4715 127.882 62.0752 128.366 62.0752H131.614C132.029 62.1413 132.443 62.4715 132.443 62.9339Z" fill="#474E61"/>
<path d="M131.614 87.44H128.228C127.675 87.44 127.191 86.9562 127.191 86.4033V83.0167C127.191 82.4638 127.675 81.98 128.228 81.98H131.614C132.167 81.98 132.651 82.4638 132.651 83.0167V86.4033C132.651 86.9562 132.167 87.44 131.614 87.44Z" fill="#474E61"/>
<defs>
<filter id="filter0_d_577_1290" x="0" y="17.624" width="136.612" height="109.105" filterUnits="userSpaceOnUse" color-interpolation-filters="sRGB">
<feFlood flood-opacity="0" result="BackgroundImageFix"/>
<feColorMatrix in="SourceAlpha" type="matrix" values="0 0 0 0 0 0 0 0 0 0 0 0 0 0 0 0 0 0 127 0" result="hardAlpha"/>
<feOffset dy="11"/>
<feGaussianBlur stdDeviation="11"/>
<feColorMatrix type="matrix" values="0 0 0 0 0 0 0 0 0 0 0 0 0 0 0 0 0 0 0.27 0"/>
<feBlend mode="normal" in2="BackgroundImageFix" result="effect1_dropShadow_577_1290"/>
<feBlend mode="normal" in="SourceGraphic" in2="effect1_dropShadow_577_1290" result="shape"/>
</filter>
<filter id="filter1_d_577_1290" x="9.5376" y="8.15527" width="136.612" height="109.105" filterUnits="userSpaceOnUse" color-interpolation-filters="sRGB">
<feFlood flood-opacity="0" result="BackgroundImageFix"/>
<feColorMatrix in="SourceAlpha" type="matrix" values="0 0 0 0 0 0 0 0 0 0 0 0 0 0 0 0 0 0 127 0" result="hardAlpha"/>
<feOffset dy="11"/>
<feGaussianBlur stdDeviation="11"/>
<feColorMatrix type="matrix" values="0 0 0 0 0 0 0 0 0 0 0 0 0 0 0 0 0 0 0.27 0"/>
<feBlend mode="normal" in2="BackgroundImageFix" result="effect1_dropShadow_577_1290"/>
<feBlend mode="normal" in="SourceGraphic" in2="effect1_dropShadow_577_1290" result="shape"/>
</filter>
<filter id="filter2_d_577_1290" x="19.3516" y="0" width="136.681" height="109.105" filterUnits="userSpaceOnUse" color-interpolation-filters="sRGB">
<feFlood flood-opacity="0" result="BackgroundImageFix"/>
<feColorMatrix in="SourceAlpha" type="matrix" values="0 0 0 0 0 0 0 0 0 0 0 0 0 0 0 0 0 0 127 0" result="hardAlpha"/>
<feOffset dy="11"/>
<feGaussianBlur stdDeviation="11"/>
<feColorMatrix type="matrix" values="0 0 0 0 0 0 0 0 0 0 0 0 0 0 0 0 0 0 0.27 0"/>
<feBlend mode="normal" in2="BackgroundImageFix" result="effect1_dropShadow_577_1290"/>
<feBlend mode="normal" in="SourceGraphic" in2="effect1_dropShadow_577_1290" result="shape"/>
</filter>
<filter id="filter3_d_577_1290" x="104.876" y="54.6108" width="50.1594" height="49.814" filterUnits="userSpaceOnUse" color-interpolation-filters="sRGB">
<feFlood flood-opacity="0" result="BackgroundImageFix"/>
<feColorMatrix in="SourceAlpha" type="matrix" values="0 0 0 0 0 0 0 0 0 0 0 0 0 0 0 0 0 0 127 0" result="hardAlpha"/>
<feOffset dy="4"/>
<feGaussianBlur stdDeviation="2"/>
<feComposite in2="hardAlpha" operator="out"/>
<feColorMatrix type="matrix" values="0 0 0 0 0 0 0 0 0 0 0 0 0 0 0 0 0 0 0.25 0"/>
<feBlend mode="normal" in2="BackgroundImageFix" result="effect1_dropShadow_577_1290"/>
<feBlend mode="normal" in="SourceGraphic" in2="effect1_dropShadow_577_1290" result="shape"/>
</filter>
<linearGradient id="paint0_linear_577_1290" x1="118.546" y1="65.587" x2="136.463" y2="96.1694" gradientUnits="userSpaceOnUse">
<stop stop-color="#E3EAF7"/>
<stop offset="1" stop-color="#ADB6C8"/>
</linearGradient>
</defs>
</svg>
