<svg width="193" height="173" viewBox="0 0 193 173" fill="none" xmlns="http://www.w3.org/2000/svg">
<path d="M102.913 0L108.661 1.7122L105.848 26.1722L102.791 25.0715L102.913 0Z" fill="#B8BFCD"/>
<path d="M102.546 27.8844L105.359 28.9851L104.992 31.3088L102.179 30.3304L102.546 27.8844Z" fill="#B8BFCD"/>
<path d="M113.186 13.0861L118.934 14.676L116.244 30.3304L113.064 29.2297L113.186 13.0861Z" fill="#B8BFCD"/>
<path d="M112.819 31.9203L115.632 33.021L115.265 35.2224L112.452 34.244L112.819 31.9203Z" fill="#B8BFCD"/>
<path d="M142.783 121.322H67.5681C67.5681 121.322 71.7263 119.976 64.5106 121.322C57.1725 122.667 57.1725 122.422 57.784 117.775C58.3956 113.128 62.7984 108.358 66.2228 103.221C65.8559 98.3293 67.4458 93.1927 73.1939 88.423C73.1939 88.3007 73.1939 88.1784 73.1939 88.0561C70.381 60.0493 85.1793 69.2219 97.5316 64.5745L95.9417 63.4738L114.042 55.6465C114.042 55.6465 119.179 56.9918 123.948 59.6824C127.495 61.7615 130.797 64.4522 131.286 67.8766C131.898 71.7902 131.286 76.9268 130.43 81.6965C129.697 85.977 128.84 89.8906 128.596 92.4589C128.596 92.9481 128.474 93.315 128.474 93.6819C129.33 97.7178 134.955 103.71 134.222 107.624C136.178 109.703 138.624 115.941 138.991 118.631C139.481 121.322 142.783 121.322 142.783 121.322Z" fill="#DDE3EE"/>
<path opacity="0.1" d="M130.43 81.6965C129.696 85.977 128.84 89.8906 128.596 92.5812C126.761 95.8833 123.459 97.9624 118.934 100.531C117.956 101.142 116.733 101.631 115.632 101.998C114.042 102.488 112.452 102.977 110.862 103.221C105.97 104.2 100.956 104.444 95.9415 103.466C91.7833 102.61 87.6251 101.265 83.8338 99.0631C82.6108 98.3293 81.2655 97.4732 80.1648 96.4948C76.8627 93.6819 74.2944 91.2359 72.9491 88.3007C71.7261 85.8547 71.4815 83.0418 72.093 79.2505C73.5606 71.1787 75.5174 65.0637 75.5174 65.0637C75.6397 64.4522 76.6181 63.5961 76.985 63.1069C77.5965 62.4954 77.9634 61.7616 78.5749 61.1501C79.5533 59.9271 80.7763 58.5818 81.7547 57.3588C84.2007 54.9128 86.8913 52.956 90.0711 51.733C95.2077 49.8985 100.711 50.1431 105.97 50.8769C109.761 51.3661 113.797 52.2222 117.222 54.179C119.79 55.6466 121.869 57.4811 123.704 59.8048C124.071 60.1717 124.315 60.6609 124.682 61.0278C126.761 64.0853 128.229 67.5097 129.941 70.8118C130.063 70.8118 130.43 75.3369 130.43 81.6965Z" fill="#AAB2C5"/>
<path d="M27.6982 121.444H186.811" stroke="#D6DCE8" stroke-width="1.5905" stroke-miterlimit="10" stroke-linecap="round" stroke-linejoin="round"/>
<path d="M8.98633 121.444H19.1372" stroke="#D6DCE8" stroke-width="1.5905" stroke-miterlimit="10" stroke-linecap="round" stroke-linejoin="round"/>
<path d="M119.546 90.869C118.567 91.4805 117.344 91.9697 116.243 92.3366C114.776 92.8258 113.064 93.315 111.474 93.5596C106.582 94.538 101.567 94.7826 96.5531 93.6819C92.3949 92.8258 88.2367 91.4805 84.4454 89.2791C83.1001 88.5453 81.8771 87.6892 80.7764 86.7108C74.5391 81.4519 71.237 77.5382 72.7046 69.4664C74.1722 61.3946 76.0067 55.4019 76.0067 55.4019C76.129 54.7904 77.1074 53.9343 77.4743 53.4451C78.0858 52.8336 78.4527 52.0998 79.0642 51.4883C80.0426 50.2653 81.1433 48.92 82.244 47.697C84.69 45.251 87.3806 43.2942 90.5604 42.0712C95.697 40.2367 101.2 40.4813 106.459 41.2151C110.373 41.7043 114.287 42.5604 117.711 44.5172C120.769 46.2294 123.092 48.5531 125.049 51.366C127.128 54.4235 128.596 57.8479 130.308 61.2723C130.308 61.2723 130.919 67.6319 130.675 75.826C130.675 84.0202 126.639 86.9554 119.546 90.869Z" fill="#EAEEF9"/>
<path d="M93.1287 70.078C91.9057 70.9341 90.0712 74.2362 84.9346 71.5456C77.7189 67.632 79.5534 57.848 84.0785 55.1574C92.1503 50.3877 99.4883 53.8121 99.8552 61.2724C100.222 69.2219 95.697 68.4881 93.1287 70.078Z" fill="#BFC8D6"/>
<path d="M133.855 116.797C132.876 118.02 133.121 119.854 134.466 120.832C135.2 121.322 135.934 121.811 136.301 123.034C137.157 125.48 144.984 131.228 149.02 130.005C153.178 128.782 157.703 125.724 156.602 120.71C155.624 115.696 151.221 113.25 149.02 113.128C146.818 112.883 139.114 112.027 136.545 113.984C135.567 114.84 134.588 115.94 133.855 116.797Z" fill="#EAEEF9"/>
<path d="M69.5248 116.797C70.5032 118.02 70.2586 119.854 68.9133 120.833C68.1795 121.322 67.4457 121.811 67.0788 123.034C66.2227 125.48 58.3955 131.228 54.3596 130.005C50.3237 128.782 45.6763 125.725 46.777 120.71C47.7554 115.696 52.1582 113.25 54.3596 113.128C56.561 113.005 64.2659 112.027 66.8342 113.984C67.9349 114.84 68.9133 115.941 69.5248 116.797Z" fill="#EAEEF9"/>
<path d="M88.9706 68.4881C92.1504 68.855 94.9633 66.5313 95.3302 63.3515C95.6971 60.1717 93.3734 57.3588 90.1936 56.9919C87.0138 56.625 84.2009 58.9487 83.834 62.1285C83.4671 65.3083 85.7908 68.1212 88.9706 68.4881Z" fill="white"/>
<path d="M94.5963 63.9629C94.3517 66.4089 92.1503 68.2434 89.7043 67.9988C87.2583 67.7542 85.4238 65.5528 85.6684 63.1068C86.0353 63.4737 86.5245 63.8406 87.0137 63.9629C88.1144 64.0852 89.0928 63.3514 89.2151 62.1284C89.3374 61.0277 88.6036 60.0493 87.5029 59.927C88.359 59.3155 89.4597 59.0709 90.5604 59.1932C93.1287 59.3155 94.8409 61.3946 94.5963 63.9629Z" fill="#989FB0"/>
<path d="M116.855 71.4233C120.035 71.7902 122.848 69.4665 123.215 66.2866C123.581 63.1068 121.258 60.2939 118.078 59.927C114.898 59.5601 112.085 61.8838 111.718 65.0636C111.351 68.3658 113.675 71.1787 116.855 71.4233Z" fill="white"/>
<path d="M112.208 65.7975C111.963 68.2435 113.798 70.4449 116.244 70.6895C118.69 70.9341 120.891 69.0996 121.136 66.6536C120.769 67.0205 120.157 67.2651 119.668 67.1428C118.567 67.0205 117.711 66.0421 117.833 64.9414C117.956 63.8406 118.934 63.1068 120.035 63.1068C119.301 62.373 118.323 61.8838 117.222 61.7615C114.776 61.5169 112.575 63.2292 112.208 65.7975Z" fill="#989FB0"/>
<path d="M92.5172 49.0424C90.4381 49.4093 88.6036 49.7762 87.136 50.7546C85.6684 51.733 84.2008 53.3229 83.467 55.1574C83.467 55.2797 83.3447 55.2797 83.2224 55.2797C83.1001 55.2797 83.1001 55.1574 83.1001 55.1574C83.2224 54.179 83.7116 53.0783 84.3231 52.2222C84.8123 51.2438 85.6684 50.51 86.6468 49.8985C87.6252 49.287 88.4813 48.7978 89.582 48.4309C90.6827 48.3086 91.7834 48.1863 92.7618 48.6755C92.6395 48.6755 92.8841 48.9201 92.5172 49.0424C92.6395 49.0424 92.6395 49.0424 92.5172 49.0424Z" fill="#989FB0"/>
<path d="M117.589 53.4451C119.423 54.1789 121.013 54.9128 122.358 56.1358C123.581 57.3588 124.56 59.1933 124.927 61.0278C124.927 61.1501 125.049 61.1501 125.171 61.1501C125.294 61.1501 125.294 61.0278 125.294 61.0278C125.416 60.0494 125.049 58.9487 124.804 58.0926C124.438 57.1142 123.948 56.1357 123.092 55.4019C122.358 54.6681 121.625 53.9343 120.646 53.4451C119.668 53.0782 118.567 52.8336 117.589 52.9559C117.466 53.0782 117.466 53.2005 117.589 53.4451C117.589 53.4451 117.344 53.4451 117.589 53.4451Z" fill="#989FB0"/>
<path d="M128.474 48.0639C126.272 45.1287 123.092 45.9848 124.315 49.4092C126.272 54.7904 129.941 57.3587 130.92 77.416C131.164 80.9627 143.027 73.3801 143.027 60.7831C143.027 58.4594 140.214 57.6033 140.214 57.6033C138.502 57.1141 132.02 52.589 128.474 48.0639Z" fill="#989FB0"/>
<path d="M27.6979 57.6034C27.6979 57.6034 14.7341 53.8121 16.8132 58.0926C18.8923 62.3731 24.6404 70.9341 33.8129 73.0132C42.9854 74.97 37.4819 66.8982 37.6042 67.0205L27.6979 57.6034Z" fill="#EEEEEE"/>
<g filter="url(#filter0_d_567_20558)">
<path d="M14.0005 49.2869C17.3026 52.9559 31.1225 58.3371 42.3741 57.8479C43.964 69.5887 45.187 73.1354 47.2661 74.603C41.6403 76.0706 26.4751 74.8476 24.396 63.4737C13.7559 63.9629 14.0005 49.2869 14.0005 49.2869Z" fill="url(#paint0_linear_567_20558)"/>
</g>
<g filter="url(#filter1_d_567_20558)">
<path d="M160.149 92.7035C163.818 90.2575 170.422 78.8836 171.401 69.0996C181.796 69.0996 184.976 68.6104 186.688 66.8982C187.177 72.0348 186.199 84.6317 177.393 92.092C167.609 93.0704 160.149 92.7035 160.149 92.7035Z" fill="url(#paint1_linear_567_20558)"/>
</g>
<g filter="url(#filter2_d_567_20558)">
<path d="M132.632 132.696C115.632 135.508 112.574 135.998 106.092 135.142C99.6105 134.285 90.5603 133.185 87.5028 139.055C86.1575 131.35 83.1 124.257 77.4742 118.876C77.8411 118.386 78.0857 117.653 78.0857 116.919C78.0857 115.451 77.2296 114.228 75.8843 113.739C76.1289 113.25 76.2512 112.761 76.2512 112.271C76.2512 110.437 74.7836 108.847 72.8268 108.847C71.7261 108.847 70.7477 109.336 70.1362 110.192C70.2585 109.581 70.3808 109.092 70.3808 108.847C70.3808 107.013 68.9132 105.423 66.9564 105.423C65.978 105.423 64.9996 105.912 64.3881 106.646C63.8989 105.912 63.1651 105.423 62.1867 105.423C60.7191 105.423 59.6184 106.523 59.6184 107.991C59.6184 108.236 59.6184 108.847 59.6184 109.581C50.9351 106.768 49.1006 106.646 49.1006 106.646C54.3595 96.2501 79.3087 81.0849 97.2868 83.8978C108.783 85.61 121.747 88.7898 128.351 101.387C127.984 101.264 127.617 101.142 127.25 101.142C127.128 101.142 126.883 101.142 126.639 101.264C126.027 100.408 125.049 99.9191 123.948 99.9191C122.236 99.9191 120.891 101.142 120.646 102.732C120.524 102.732 120.035 102.732 119.668 102.732C117.833 102.732 116.366 104.2 116.366 106.034C116.366 107.379 117.222 108.602 118.445 109.092C117.833 109.703 117.466 110.437 117.466 111.415C117.466 113.25 118.934 114.717 120.768 114.717C121.991 114.717 122.97 114.106 123.581 113.25C124.193 114.106 125.171 114.717 126.394 114.717C128.229 114.717 129.696 113.25 129.696 111.415C129.696 111.293 129.696 111.293 129.696 111.171C130.552 110.804 131.286 110.07 131.531 109.214C133.121 115.329 133.732 123.034 132.632 132.696Z" fill="url(#paint2_linear_567_20558)"/>
</g>
<path d="M89.9487 123.768C94.7184 122.3 115.02 117.775 126.639 119.12L89.9487 123.768Z" fill="white"/>
<path fill-rule="evenodd" clip-rule="evenodd" d="M105.852 121.174C98.7513 122.317 92.5217 123.808 90.1826 124.528L89.7148 123.008C92.1455 122.26 98.4516 120.754 105.599 119.604C112.734 118.456 120.806 117.644 126.73 118.33L126.547 119.91C120.853 119.251 112.965 120.029 105.852 121.174Z" fill="#D6DCE8"/>
<path d="M85.1792 117.286C89.0928 115.573 107.927 111.66 117.466 111.293L85.1792 117.286Z" fill="white"/>
<path fill-rule="evenodd" clip-rule="evenodd" d="M90.7256 116.451C88.2565 117.065 86.4068 117.617 85.4979 118.014L84.8604 116.557C85.9082 116.099 87.8804 115.52 90.3415 114.907C92.8227 114.29 95.8559 113.626 99.0618 113.004C105.462 111.764 112.604 110.684 117.436 110.499L117.497 112.088C112.79 112.269 105.745 113.329 99.3643 114.566C96.18 115.183 93.1746 115.841 90.7256 116.451Z" fill="#D6DCE8"/>
<path d="M80.6541 110.07C96.1862 101.387 108.416 105.056 118.445 97.3508L80.6541 110.07Z" fill="white"/>
<path fill-rule="evenodd" clip-rule="evenodd" d="M101.755 104.126C95.5056 105.257 88.6821 106.493 81.0422 110.764L80.2661 109.376C88.1424 104.973 95.1873 103.698 101.434 102.568L101.472 102.561C107.751 101.425 113.122 100.438 117.96 96.7202L118.929 97.9815C113.758 101.954 108.024 102.992 101.823 104.114L101.755 104.126Z" fill="#D6DCE8"/>
<path d="M75.6396 104.567C82.2439 100.041 87.8697 97.9623 95.4523 97.3508L75.6396 104.567Z" fill="white"/>
<path fill-rule="evenodd" clip-rule="evenodd" d="M95.516 98.1435C88.0821 98.743 82.5877 100.77 76.0889 105.223L75.1899 103.91C81.8996 99.3131 87.6568 97.1816 95.3881 96.5581L95.516 98.1435Z" fill="#D6DCE8"/>
<path d="M116.61 86.7107C116.61 86.833 116.61 87.0776 116.61 87.1999V87.3222C116.61 87.4445 116.61 87.5668 116.488 87.6891C115.754 89.6459 112.574 91.9696 109.272 92.3365C105.97 92.7034 102.546 91.3581 101.078 85.8546C97.5315 89.279 94.1071 89.7682 91.2942 89.0344C87.6252 88.056 85.1792 85.1208 85.0569 84.2647C85.0569 83.8978 85.0569 83.5309 85.1792 83.164C86.0353 75.2145 93.7402 69.5887 102.423 70.5671C111.107 71.6678 117.466 78.8835 116.61 86.7107Z" fill="#BFC8D6"/>
<path d="M102.424 71.7902C101.69 71.6679 100.834 71.6679 100.1 71.7902C99.1214 72.0348 97.6538 72.2793 97.4092 73.5023C97.2869 75.0923 100.711 76.9268 101.69 77.0491C102.668 77.1714 106.459 76.193 106.704 74.6031C106.826 73.0132 105.481 72.4017 104.258 72.0348C103.647 71.9125 102.913 71.6679 102.424 71.7902Z" fill="#989FB0"/>
<path fill-rule="evenodd" clip-rule="evenodd" d="M101.412 79.9801C101.354 78.3497 101.157 76.6447 100.992 75.576L101.981 75.424C102.149 76.5219 102.352 78.2669 102.411 79.9449C102.441 80.7836 102.435 81.6156 102.369 82.3466C102.304 83.0642 102.177 83.7371 101.934 84.2236L101.039 83.7764C101.196 83.4629 101.311 82.944 101.373 82.2565C101.434 81.5823 101.44 80.7955 101.412 79.9801Z" fill="#989FB0"/>
<path d="M81.9995 47.4524L81.8772 48.7977C81.2657 49.4092 80.7765 50.143 80.165 50.8768C76.9852 55.1573 74.05 60.7831 73.1939 67.8765C72.9493 67.0204 70.381 57.8479 69.8918 56.1357C69.7695 55.7688 69.6472 55.5242 69.6472 55.5242V52.9559L71.9709 47.8193L77.9636 44.7618L81.9995 47.4524Z" fill="#6F788D"/>
<path d="M87.3806 43.6612C85.6684 44.8842 83.7116 46.5964 81.8771 48.7978C81.2656 49.4093 80.7764 50.1431 80.1649 50.8769C79.9203 47.4525 75.8844 46.9633 75.8844 46.9633C75.3952 50.0208 72.7046 53.4452 69.7694 56.1358C67.3234 58.3372 64.6328 59.9271 62.9206 60.0494C62.4314 60.0494 62.0645 59.6825 62.3091 59.1933C63.5321 56.0135 63.1652 51.3661 63.5321 49.0424C64.0213 46.4741 71.3593 42.5605 75.1506 41.0929C78.0858 39.9922 85.7907 41.5821 87.3806 43.6612Z" fill="#989FB0"/>
<defs>
<filter id="filter0_d_567_20558" x="0" y="39.2869" width="53.2661" height="45.8157" filterUnits="userSpaceOnUse" color-interpolation-filters="sRGB">
<feFlood flood-opacity="0" result="BackgroundImageFix"/>
<feColorMatrix in="SourceAlpha" type="matrix" values="0 0 0 0 0 0 0 0 0 0 0 0 0 0 0 0 0 0 127 0" result="hardAlpha"/>
<feOffset dx="-4"/>
<feGaussianBlur stdDeviation="5"/>
<feColorMatrix type="matrix" values="0 0 0 0 0.397708 0 0 0 0 0.47749 0 0 0 0 0.575 0 0 0 0.15 0"/>
<feBlend mode="normal" in2="BackgroundImageFix" result="effect1_dropShadow_567_20558"/>
<feBlend mode="normal" in="SourceGraphic" in2="effect1_dropShadow_567_20558" result="shape"/>
</filter>
<filter id="filter1_d_567_20558" x="146.149" y="56.8982" width="46.6416" height="45.8727" filterUnits="userSpaceOnUse" color-interpolation-filters="sRGB">
<feFlood flood-opacity="0" result="BackgroundImageFix"/>
<feColorMatrix in="SourceAlpha" type="matrix" values="0 0 0 0 0 0 0 0 0 0 0 0 0 0 0 0 0 0 127 0" result="hardAlpha"/>
<feOffset dx="-4"/>
<feGaussianBlur stdDeviation="5"/>
<feColorMatrix type="matrix" values="0 0 0 0 0.397708 0 0 0 0 0.47749 0 0 0 0 0.575 0 0 0 0.15 0"/>
<feBlend mode="normal" in2="BackgroundImageFix" result="effect1_dropShadow_567_20558"/>
<feBlend mode="normal" in="SourceGraphic" in2="effect1_dropShadow_567_20558" result="shape"/>
</filter>
<filter id="filter2_d_567_20558" x="27.1006" y="72.5559" width="128.089" height="99.4992" filterUnits="userSpaceOnUse" color-interpolation-filters="sRGB">
<feFlood flood-opacity="0" result="BackgroundImageFix"/>
<feColorMatrix in="SourceAlpha" type="matrix" values="0 0 0 0 0 0 0 0 0 0 0 0 0 0 0 0 0 0 127 0" result="hardAlpha"/>
<feOffset dy="11"/>
<feGaussianBlur stdDeviation="11"/>
<feColorMatrix type="matrix" values="0 0 0 0 0.397708 0 0 0 0 0.47749 0 0 0 0 0.575 0 0 0 0.27 0"/>
<feBlend mode="normal" in2="BackgroundImageFix" result="effect1_dropShadow_567_20558"/>
<feBlend mode="normal" in="SourceGraphic" in2="effect1_dropShadow_567_20558" result="shape"/>
</filter>
<linearGradient id="paint0_linear_567_20558" x1="30.6222" y1="48.6897" x2="30.6222" y2="75.3808" gradientUnits="userSpaceOnUse">
<stop stop-color="#FDFEFF"/>
<stop offset="0.9964" stop-color="#ECF0F5"/>
</linearGradient>
<linearGradient id="paint1_linear_567_20558" x1="173.461" y1="66.2997" x2="173.461" y2="93.0498" gradientUnits="userSpaceOnUse">
<stop stop-color="#FDFEFF"/>
<stop offset="0.9964" stop-color="#ECF0F5"/>
</linearGradient>
<linearGradient id="paint2_linear_567_20558" x1="91.1177" y1="82.2722" x2="91.1177" y2="139.653" gradientUnits="userSpaceOnUse">
<stop stop-color="#FDFEFF"/>
<stop offset="0.9964" stop-color="#ECF0F5"/>
</linearGradient>
</defs>
</svg>
