<svg width="193" height="173" viewBox="0 0 193 173" fill="none" xmlns="http://www.w3.org/2000/svg">
<path d="M102.913 0L108.661 1.7122L105.848 26.1722L102.791 25.0715L102.913 0Z" fill="#9DA6B7"/>
<path d="M102.546 27.8843L105.359 28.985L104.992 31.3087L102.179 30.3303L102.546 27.8843Z" fill="#9DA6B7"/>
<path d="M113.186 13.0859L118.934 14.6758L116.244 30.3303L113.064 29.2296L113.186 13.0859Z" fill="#9DA6B7"/>
<path d="M112.819 31.9204L115.632 33.0211L115.265 35.2225L112.452 34.2441L112.819 31.9204Z" fill="#9DA6B7"/>
<path d="M142.783 121.322H67.5681C67.5681 121.322 71.7263 119.976 64.5106 121.322C57.1725 122.667 57.1725 122.422 57.784 117.775C58.3956 113.128 62.7984 108.358 66.2228 103.221C65.8559 98.3292 67.4458 93.1926 73.1939 88.4229C73.1939 88.3006 73.1939 88.1783 73.1939 88.056C70.381 60.0493 85.1793 69.2218 97.5316 64.5744L95.9417 63.4737L114.042 55.6465C114.042 55.6465 119.179 56.9918 123.948 59.6824C127.495 61.7615 130.797 64.4521 131.286 67.8765C131.898 71.7901 131.286 76.9267 130.43 81.6964C129.697 85.9769 128.84 89.8905 128.596 92.4588C128.596 92.948 128.474 93.3149 128.474 93.6818C129.33 97.7177 134.955 103.71 134.222 107.624C136.178 109.703 138.624 115.94 138.991 118.631C139.481 121.322 142.783 121.322 142.783 121.322Z" fill="#43495B"/>
<path d="M27.6982 121.444H186.811" stroke="#2B323C" stroke-width="2" stroke-miterlimit="10" stroke-linecap="round" stroke-linejoin="round"/>
<path d="M8.98633 121.444H19.1372" stroke="#2B323C" stroke-width="2" stroke-miterlimit="10" stroke-linecap="round" stroke-linejoin="round"/>
<path d="M119.546 90.8689C118.567 91.4804 117.344 91.9696 116.243 92.3365C114.776 92.8257 113.064 93.3149 111.474 93.5595C106.582 94.5379 101.567 94.7825 96.5531 93.6818C92.3949 92.8257 88.2367 91.4804 84.4454 89.279C83.1001 88.5452 81.8771 87.6891 80.7764 86.7107C74.5391 81.4518 71.237 77.5382 72.7046 69.4664C74.1722 61.3946 76.0067 55.4019 76.0067 55.4019C76.129 54.7904 77.1074 53.9343 77.4743 53.4451C78.0858 52.8336 78.4527 52.0998 79.0642 51.4883C80.0426 50.2653 81.1433 48.92 82.244 47.697C84.69 45.251 87.3806 43.2942 90.5604 42.0712C95.697 40.2367 101.2 40.4813 106.459 41.2151C110.373 41.7043 114.287 42.5604 117.711 44.5172C120.769 46.2294 123.092 48.5531 125.049 51.366C127.128 54.4235 128.596 57.8479 130.308 61.2723C130.308 61.2723 130.919 67.6319 130.675 75.826C130.675 84.0201 126.639 86.9553 119.546 90.8689Z" fill="#5C6479"/>
<path d="M93.1287 70.0778C91.9057 70.9339 90.0712 74.236 84.9346 71.5454C77.7189 67.6318 79.5534 57.8478 84.0785 55.1572C92.1503 50.3875 99.4883 53.8119 99.8552 61.2722C100.222 69.2217 95.697 68.4879 93.1287 70.0778Z" fill="#BFC8D6"/>
<path d="M133.855 116.796C132.876 118.019 133.121 119.854 134.466 120.832C135.2 121.322 135.934 121.811 136.301 123.034C137.157 125.48 144.984 131.228 149.02 130.005C153.178 128.782 157.703 125.724 156.602 120.71C155.624 115.696 151.221 113.25 149.02 113.127C146.818 112.883 139.114 112.027 136.545 113.984C135.567 114.84 134.588 115.94 133.855 116.796Z" fill="#2A2E37"/>
<path d="M69.5248 116.797C70.5032 118.02 70.2586 119.854 68.9133 120.833C68.1795 121.322 67.4457 121.811 67.0788 123.034C66.2227 125.48 58.3955 131.228 54.3596 130.005C50.3237 128.782 45.6763 125.725 46.777 120.71C47.7554 115.696 52.1582 113.25 54.3596 113.128C56.561 113.005 64.2659 112.027 66.8342 113.984C67.9349 114.84 68.9133 115.941 69.5248 116.797Z" fill="#2A2E37"/>
<path d="M88.9706 68.488C92.1504 68.8549 94.9633 66.5311 95.3302 63.3513C95.6971 60.1715 93.3734 57.3586 90.1936 56.9917C87.0138 56.6248 84.2009 58.9485 83.834 62.1283C83.4671 65.3081 85.7908 68.1211 88.9706 68.488Z" fill="white"/>
<path d="M94.5963 63.9629C94.3517 66.4089 92.1503 68.2434 89.7043 67.9988C87.2583 67.7542 85.4238 65.5528 85.6684 63.1068C86.0353 63.4737 86.5245 63.8406 87.0137 63.9629C88.1144 64.0852 89.0928 63.3514 89.2151 62.1284C89.3374 61.0277 88.6036 60.0493 87.5029 59.927C88.359 59.3155 89.4597 59.0709 90.5604 59.1932C93.1287 59.3155 94.8409 61.3946 94.5963 63.9629Z" fill="#2E333D"/>
<path d="M116.855 71.423C120.035 71.7899 122.848 69.4662 123.215 66.2864C123.581 63.1066 121.258 60.2937 118.078 59.9268C114.898 59.5599 112.085 61.8836 111.718 65.0634C111.351 68.3655 113.675 71.1784 116.855 71.423Z" fill="white"/>
<path d="M112.208 65.7974C111.963 68.2434 113.798 70.4448 116.244 70.6894C118.69 70.934 120.891 69.0995 121.136 66.6535C120.769 67.0204 120.157 67.265 119.668 67.1427C118.567 67.0204 117.711 66.042 117.833 64.9413C117.956 63.8406 118.934 63.1068 120.035 63.1068C119.301 62.373 118.323 61.8838 117.222 61.7615C114.776 61.5169 112.575 63.2291 112.208 65.7974Z" fill="#2E333D"/>
<path d="M92.5172 49.0422C90.4381 49.4091 88.6036 49.776 87.136 50.7544C85.6684 51.7328 84.2008 53.3227 83.467 55.1572C83.467 55.2795 83.3447 55.2795 83.2224 55.2795C83.1001 55.2795 83.1001 55.1572 83.1001 55.1572C83.2224 54.1788 83.7116 53.0781 84.3231 52.222C84.8123 51.2436 85.6684 50.5098 86.6468 49.8983C87.6252 49.2868 88.4813 48.7976 89.582 48.4307C90.6827 48.3084 91.7834 48.1861 92.7618 48.6753C92.6395 48.6753 92.8841 48.9199 92.5172 49.0422C92.6395 49.0422 92.6395 49.0422 92.5172 49.0422Z" fill="#989FB0"/>
<path d="M117.589 53.4453C119.423 54.1791 121.013 54.9129 122.358 56.1359C123.581 57.3589 124.56 59.1934 124.927 61.0279C124.927 61.1502 125.049 61.1502 125.171 61.1502C125.294 61.1502 125.294 61.0279 125.294 61.0279C125.416 60.0495 125.049 58.9488 124.804 58.0927C124.438 57.1143 123.948 56.1359 123.092 55.4021C122.358 54.6683 121.625 53.9345 120.646 53.4453C119.668 53.0784 118.567 52.8338 117.589 52.9561C117.466 53.0784 117.466 53.2007 117.589 53.4453C117.589 53.4453 117.344 53.4453 117.589 53.4453Z" fill="#989FB0"/>
<path d="M128.474 48.0641C126.272 45.1289 123.092 45.985 124.315 49.4094C126.272 54.7906 129.941 57.3589 130.92 77.4161C131.164 80.9628 143.027 73.3802 143.027 60.7833C143.027 58.4596 140.214 57.6035 140.214 57.6035C138.502 57.1143 132.02 52.5892 128.474 48.0641Z" fill="#989FB0"/>
<path d="M27.6979 57.6036C27.6979 57.6036 14.7341 53.8123 16.8132 58.0928C18.8923 62.3733 24.6404 70.9343 33.8129 73.0134C42.9854 74.9702 37.4819 66.8984 37.6042 67.0207L27.6979 57.6036Z" fill="#5C6479"/>
<g filter="url(#filter0_d_577_1206)">
<path d="M14.0005 49.2871C17.3026 52.9561 31.1225 58.3373 42.3741 57.8481C43.964 69.5889 45.187 73.1356 47.2661 74.6032C41.6403 76.0708 26.4751 74.8478 24.396 63.4739C13.7559 63.9631 14.0005 49.2871 14.0005 49.2871Z" fill="#9DA6B7"/>
</g>
<g filter="url(#filter1_d_577_1206)">
<path d="M160.149 92.7033C163.818 90.2573 170.422 78.8834 171.401 69.0994C181.796 69.0994 184.976 68.6102 186.688 66.8979C187.177 72.0346 186.199 84.6315 177.393 92.0918C167.609 93.0702 160.149 92.7033 160.149 92.7033Z" fill="#9DA6B7"/>
</g>
<g filter="url(#filter2_d_577_1206)">
<path d="M132.632 132.695C115.632 135.508 112.574 135.997 106.092 135.141C99.6105 134.285 90.5603 133.184 87.5028 139.055C86.1575 131.35 83.1 124.257 77.4742 118.875C77.8411 118.386 78.0857 117.652 78.0857 116.919C78.0857 115.451 77.2296 114.228 75.8843 113.739C76.1289 113.25 76.2512 112.76 76.2512 112.271C76.2512 110.437 74.7836 108.847 72.8268 108.847C71.7261 108.847 70.7477 109.336 70.1362 110.192C70.2585 109.581 70.3808 109.091 70.3808 108.847C70.3808 107.012 68.9132 105.422 66.9564 105.422C65.978 105.422 64.9996 105.912 64.3881 106.645C63.8989 105.912 63.1651 105.422 62.1867 105.422C60.7191 105.422 59.6184 106.523 59.6184 107.991C59.6184 108.235 59.6184 108.847 59.6184 109.581C50.9351 106.768 49.1006 106.645 49.1006 106.645C54.3595 96.2499 79.3087 81.0846 97.2868 83.8975C108.783 85.6097 121.747 88.7895 128.351 101.386C127.984 101.264 127.617 101.142 127.25 101.142C127.128 101.142 126.883 101.142 126.639 101.264C126.027 100.408 125.049 99.9189 123.948 99.9189C122.236 99.9189 120.891 101.142 120.646 102.732C120.524 102.732 120.035 102.732 119.668 102.732C117.833 102.732 116.366 104.199 116.366 106.034C116.366 107.379 117.222 108.602 118.445 109.091C117.833 109.703 117.466 110.437 117.466 111.415C117.466 113.25 118.934 114.717 120.768 114.717C121.991 114.717 122.97 114.106 123.581 113.25C124.193 114.106 125.171 114.717 126.394 114.717C128.229 114.717 129.696 113.25 129.696 111.415C129.696 111.293 129.696 111.293 129.696 111.17C130.552 110.804 131.286 110.07 131.531 109.214C133.121 115.329 133.732 123.034 132.632 132.695Z" fill="#A0A9BA"/>
</g>
<path fill-rule="evenodd" clip-rule="evenodd" d="M105.852 121.174C98.7513 122.317 92.5217 123.808 90.1826 124.528L89.7148 123.007C92.1455 122.259 98.4516 120.754 105.599 119.604C112.734 118.455 120.806 117.644 126.73 118.33L126.547 119.91C120.853 119.251 112.965 120.029 105.852 121.174Z" fill="#D6DCE8"/>
<path fill-rule="evenodd" clip-rule="evenodd" d="M90.7256 116.45C88.2565 117.064 86.4068 117.616 85.4979 118.014L84.8604 116.557C85.9082 116.098 87.8804 115.519 90.3415 114.907C92.8227 114.289 95.8559 113.625 99.0618 113.004C105.462 111.764 112.604 110.684 117.436 110.498L117.497 112.087C112.79 112.268 105.745 113.329 99.3643 114.565C96.18 115.182 93.1746 115.841 90.7256 116.45Z" fill="#D6DCE8"/>
<path fill-rule="evenodd" clip-rule="evenodd" d="M101.755 104.126C95.5056 105.256 88.6821 106.493 81.0422 110.764L80.2661 109.375C88.1424 104.972 95.1873 103.698 101.434 102.567L101.472 102.561C107.751 101.425 113.122 100.437 117.96 96.7197L118.929 97.981C113.758 101.954 108.024 102.991 101.823 104.113L101.755 104.126Z" fill="#D6DCE8"/>
<path fill-rule="evenodd" clip-rule="evenodd" d="M95.516 98.143C88.0821 98.7425 82.5877 100.769 76.0889 105.222L75.1899 103.91C81.8996 99.3126 87.6568 97.1811 95.3881 96.5576L95.516 98.143Z" fill="#D6DCE8"/>
<path d="M116.61 86.7107C116.61 86.833 116.61 87.0776 116.61 87.1999V87.3222C116.61 87.4445 116.61 87.5668 116.488 87.6891C115.754 89.6459 112.574 91.9696 109.272 92.3365C105.97 92.7034 102.546 91.3581 101.078 85.8546C97.5315 89.279 94.1071 89.7682 91.2942 89.0344C87.6252 88.056 85.1792 85.1208 85.0569 84.2647C85.0569 83.8978 85.0569 83.5309 85.1792 83.164C86.0353 75.2145 93.7402 69.5887 102.423 70.5671C111.107 71.6678 117.466 78.8835 116.61 86.7107Z" fill="#BFC8D6"/>
<path d="M102.424 71.79C101.69 71.6677 100.834 71.6677 100.1 71.79C99.1214 72.0346 97.6538 72.2792 97.4092 73.5022C97.2869 75.0921 100.711 76.9266 101.69 77.0489C102.668 77.1712 106.459 76.1928 106.704 74.6029C106.826 73.013 105.481 72.4015 104.258 72.0346C103.647 71.9123 102.913 71.6677 102.424 71.79Z" fill="#989FB0"/>
<path fill-rule="evenodd" clip-rule="evenodd" d="M101.412 79.98C101.354 78.3496 101.157 76.6446 100.992 75.5759L101.981 75.4238C102.149 76.5218 102.352 78.2668 102.411 79.9447C102.441 80.7835 102.435 81.6155 102.369 82.3465C102.304 83.0641 102.177 83.7369 101.934 84.2235L101.039 83.7762C101.196 83.4628 101.311 82.9439 101.373 82.2564C101.434 81.5821 101.44 80.7954 101.412 79.98Z" fill="#989FB0"/>
<path d="M81.9995 47.4523L81.8772 48.7976C81.2657 49.4091 80.7765 50.1429 80.165 50.8767C76.9852 55.1572 74.05 60.783 73.1939 67.8764C72.9493 67.0203 70.381 57.8478 69.8918 56.1356C69.7695 55.7687 69.6472 55.5241 69.6472 55.5241V52.9558L71.9709 47.8192L77.9636 44.7617L81.9995 47.4523Z" fill="#6F788D"/>
<path d="M87.3806 43.6611C85.6684 44.8841 83.7116 46.5963 81.8771 48.7977C81.2656 49.4092 80.7764 50.143 80.1649 50.8768C79.9203 47.4524 75.8844 46.9632 75.8844 46.9632C75.3952 50.0207 72.7046 53.4451 69.7694 56.1357C67.3234 58.3371 64.6328 59.927 62.9206 60.0493C62.4314 60.0493 62.0645 59.6824 62.3091 59.1932C63.5321 56.0134 63.1652 51.366 63.5321 49.0423C64.0213 46.474 71.3593 42.5604 75.1506 41.0928C78.0858 39.9921 85.7907 41.582 87.3806 43.6611Z" fill="#989FB0"/>
<defs>
<filter id="filter0_d_577_1206" x="0" y="39.2871" width="53.2661" height="45.8154" filterUnits="userSpaceOnUse" color-interpolation-filters="sRGB">
<feFlood flood-opacity="0" result="BackgroundImageFix"/>
<feColorMatrix in="SourceAlpha" type="matrix" values="0 0 0 0 0 0 0 0 0 0 0 0 0 0 0 0 0 0 127 0" result="hardAlpha"/>
<feOffset dx="-4"/>
<feGaussianBlur stdDeviation="5"/>
<feColorMatrix type="matrix" values="0 0 0 0 0.397708 0 0 0 0 0.47749 0 0 0 0 0.575 0 0 0 0.15 0"/>
<feBlend mode="normal" in2="BackgroundImageFix" result="effect1_dropShadow_577_1206"/>
<feBlend mode="normal" in="SourceGraphic" in2="effect1_dropShadow_577_1206" result="shape"/>
</filter>
<filter id="filter1_d_577_1206" x="146.149" y="56.8979" width="46.6416" height="45.8726" filterUnits="userSpaceOnUse" color-interpolation-filters="sRGB">
<feFlood flood-opacity="0" result="BackgroundImageFix"/>
<feColorMatrix in="SourceAlpha" type="matrix" values="0 0 0 0 0 0 0 0 0 0 0 0 0 0 0 0 0 0 127 0" result="hardAlpha"/>
<feOffset dx="-4"/>
<feGaussianBlur stdDeviation="5"/>
<feColorMatrix type="matrix" values="0 0 0 0 0.397708 0 0 0 0 0.47749 0 0 0 0 0.575 0 0 0 0.15 0"/>
<feBlend mode="normal" in2="BackgroundImageFix" result="effect1_dropShadow_577_1206"/>
<feBlend mode="normal" in="SourceGraphic" in2="effect1_dropShadow_577_1206" result="shape"/>
</filter>
<filter id="filter2_d_577_1206" x="27.1006" y="72.5557" width="128.089" height="99.499" filterUnits="userSpaceOnUse" color-interpolation-filters="sRGB">
<feFlood flood-opacity="0" result="BackgroundImageFix"/>
<feColorMatrix in="SourceAlpha" type="matrix" values="0 0 0 0 0 0 0 0 0 0 0 0 0 0 0 0 0 0 127 0" result="hardAlpha"/>
<feOffset dy="11"/>
<feGaussianBlur stdDeviation="11"/>
<feColorMatrix type="matrix" values="0 0 0 0 0 0 0 0 0 0 0 0 0 0 0 0 0 0 0.27 0"/>
<feBlend mode="normal" in2="BackgroundImageFix" result="effect1_dropShadow_577_1206"/>
<feBlend mode="normal" in="SourceGraphic" in2="effect1_dropShadow_577_1206" result="shape"/>
</filter>
</defs>
</svg>
